<svg width="31" height="36" viewBox="0 0 31 36" fill="none" xmlns="http://www.w3.org/2000/svg">
<g id="Group">
<path id="Vector" d="M24.1111 16V0H6.88889V8H0V36H13.7778V28H17.2222V36H31V16H24.1111ZM6.88889 32H3.44444V28H6.88889V32ZM6.88889 24H3.44444V20H6.88889V24ZM6.88889 16H3.44444V12H6.88889V16ZM13.7778 24H10.3333V20H13.7778V24ZM13.7778 16H10.3333V12H13.7778V16ZM13.7778 8H10.3333V4H13.7778V8ZM20.6667 24H17.2222V20H20.6667V24ZM20.6667 16H17.2222V12H20.6667V16ZM20.6667 8H17.2222V4H20.6667V8ZM27.5556 32H24.1111V28H27.5556V32ZM27.5556 24H24.1111V20H27.5556V24Z" fill="white"/>
</g>
</svg>
