<svg width="43" height="43" viewBox="0 0 43 43" fill="none" xmlns="http://www.w3.org/2000/svg">
<g id="blur_on" clip-path="url(#clip0_591_1161)">
<path id="Vector" d="M10.7503 23.2916C9.76491 23.2916 8.95866 24.0979 8.95866 25.0833C8.95866 26.0687 9.76491 26.875 10.7503 26.875C11.7357 26.875 12.542 26.0687 12.542 25.0833C12.542 24.0979 11.7357 23.2916 10.7503 23.2916ZM10.7503 30.4583C9.76491 30.4583 8.95866 31.2645 8.95866 32.25C8.95866 33.2354 9.76491 34.0416 10.7503 34.0416C11.7357 34.0416 12.542 33.2354 12.542 32.25C12.542 31.2645 11.7357 30.4583 10.7503 30.4583ZM10.7503 16.125C9.76491 16.125 8.95866 16.9312 8.95866 17.9166C8.95866 18.902 9.76491 19.7083 10.7503 19.7083C11.7357 19.7083 12.542 18.902 12.542 17.9166C12.542 16.9312 11.7357 16.125 10.7503 16.125ZM5.37533 17.0208C4.87366 17.0208 4.47949 17.415 4.47949 17.9166C4.47949 18.4183 4.87366 18.8125 5.37533 18.8125C5.87699 18.8125 6.27116 18.4183 6.27116 17.9166C6.27116 17.415 5.87699 17.0208 5.37533 17.0208ZM10.7503 8.95829C9.76491 8.95829 8.95866 9.76454 8.95866 10.75C8.95866 11.7354 9.76491 12.5416 10.7503 12.5416C11.7357 12.5416 12.542 11.7354 12.542 10.75C12.542 9.76454 11.7357 8.95829 10.7503 8.95829ZM37.6253 18.8125C38.127 18.8125 38.5212 18.4183 38.5212 17.9166C38.5212 17.415 38.127 17.0208 37.6253 17.0208C37.1237 17.0208 36.7295 17.415 36.7295 17.9166C36.7295 18.4183 37.1237 18.8125 37.6253 18.8125ZM25.0837 12.5416C26.0691 12.5416 26.8753 11.7354 26.8753 10.75C26.8753 9.76454 26.0691 8.95829 25.0837 8.95829C24.0982 8.95829 23.292 9.76454 23.292 10.75C23.292 11.7354 24.0982 12.5416 25.0837 12.5416ZM25.0837 6.27079C25.5853 6.27079 25.9795 5.87663 25.9795 5.37496C25.9795 4.87329 25.5853 4.47913 25.0837 4.47913C24.582 4.47913 24.1878 4.87329 24.1878 5.37496C24.1878 5.87663 24.582 6.27079 25.0837 6.27079ZM5.37533 24.1875C4.87366 24.1875 4.47949 24.5816 4.47949 25.0833C4.47949 25.585 4.87366 25.9791 5.37533 25.9791C5.87699 25.9791 6.27116 25.585 6.27116 25.0833C6.27116 24.5816 5.87699 24.1875 5.37533 24.1875ZM17.917 36.7291C17.4153 36.7291 17.0212 37.1233 17.0212 37.625C17.0212 38.1266 17.4153 38.5208 17.917 38.5208C18.4187 38.5208 18.8128 38.1266 18.8128 37.625C18.8128 37.1233 18.4187 36.7291 17.917 36.7291ZM17.917 6.27079C18.4187 6.27079 18.8128 5.87663 18.8128 5.37496C18.8128 4.87329 18.4187 4.47913 17.917 4.47913C17.4153 4.47913 17.0212 4.87329 17.0212 5.37496C17.0212 5.87663 17.4153 6.27079 17.917 6.27079ZM17.917 12.5416C18.9024 12.5416 19.7087 11.7354 19.7087 10.75C19.7087 9.76454 18.9024 8.95829 17.917 8.95829C16.9316 8.95829 16.1253 9.76454 16.1253 10.75C16.1253 11.7354 16.9316 12.5416 17.917 12.5416ZM17.917 22.3958C16.4299 22.3958 15.2295 23.5962 15.2295 25.0833C15.2295 26.5704 16.4299 27.7708 17.917 27.7708C19.4041 27.7708 20.6045 26.5704 20.6045 25.0833C20.6045 23.5962 19.4041 22.3958 17.917 22.3958ZM32.2503 23.2916C31.2649 23.2916 30.4587 24.0979 30.4587 25.0833C30.4587 26.0687 31.2649 26.875 32.2503 26.875C33.2357 26.875 34.042 26.0687 34.042 25.0833C34.042 24.0979 33.2357 23.2916 32.2503 23.2916ZM32.2503 30.4583C31.2649 30.4583 30.4587 31.2645 30.4587 32.25C30.4587 33.2354 31.2649 34.0416 32.2503 34.0416C33.2357 34.0416 34.042 33.2354 34.042 32.25C34.042 31.2645 33.2357 30.4583 32.2503 30.4583ZM32.2503 16.125C31.2649 16.125 30.4587 16.9312 30.4587 17.9166C30.4587 18.902 31.2649 19.7083 32.2503 19.7083C33.2357 19.7083 34.042 18.902 34.042 17.9166C34.042 16.9312 33.2357 16.125 32.2503 16.125ZM32.2503 8.95829C31.2649 8.95829 30.4587 9.76454 30.4587 10.75C30.4587 11.7354 31.2649 12.5416 32.2503 12.5416C33.2357 12.5416 34.042 11.7354 34.042 10.75C34.042 9.76454 33.2357 8.95829 32.2503 8.95829ZM37.6253 24.1875C37.1237 24.1875 36.7295 24.5816 36.7295 25.0833C36.7295 25.585 37.1237 25.9791 37.6253 25.9791C38.127 25.9791 38.5212 25.585 38.5212 25.0833C38.5212 24.5816 38.127 24.1875 37.6253 24.1875ZM25.0837 30.4583C24.0982 30.4583 23.292 31.2645 23.292 32.25C23.292 33.2354 24.0982 34.0416 25.0837 34.0416C26.0691 34.0416 26.8753 33.2354 26.8753 32.25C26.8753 31.2645 26.0691 30.4583 25.0837 30.4583ZM25.0837 36.7291C24.582 36.7291 24.1878 37.1233 24.1878 37.625C24.1878 38.1266 24.582 38.5208 25.0837 38.5208C25.5853 38.5208 25.9795 38.1266 25.9795 37.625C25.9795 37.1233 25.5853 36.7291 25.0837 36.7291ZM17.917 15.2291C16.4299 15.2291 15.2295 16.4295 15.2295 17.9166C15.2295 19.4037 16.4299 20.6041 17.917 20.6041C19.4041 20.6041 20.6045 19.4037 20.6045 17.9166C20.6045 16.4295 19.4041 15.2291 17.917 15.2291ZM17.917 30.4583C16.9316 30.4583 16.1253 31.2645 16.1253 32.25C16.1253 33.2354 16.9316 34.0416 17.917 34.0416C18.9024 34.0416 19.7087 33.2354 19.7087 32.25C19.7087 31.2645 18.9024 30.4583 17.917 30.4583ZM25.0837 22.3958C23.5966 22.3958 22.3962 23.5962 22.3962 25.0833C22.3962 26.5704 23.5966 27.7708 25.0837 27.7708C26.5707 27.7708 27.7712 26.5704 27.7712 25.0833C27.7712 23.5962 26.5707 22.3958 25.0837 22.3958ZM25.0837 15.2291C23.5966 15.2291 22.3962 16.4295 22.3962 17.9166C22.3962 19.4037 23.5966 20.6041 25.0837 20.6041C26.5707 20.6041 27.7712 19.4037 27.7712 17.9166C27.7712 16.4295 26.5707 15.2291 25.0837 15.2291Z" fill="white"/>
</g>
<defs>
<clipPath id="clip0_591_1161">
<rect width="43" height="43" fill="white"/>
</clipPath>
</defs>
</svg>
