<svg width="93" height="93" viewBox="0 0 93 93" fill="none" xmlns="http://www.w3.org/2000/svg">
<g id="arcticons:inter-profile-sharing">
<path id="Vector" d="M15.6107 57.7859C13.5192 55.8257 12.0593 53.2867 11.4172 50.4931C10.7752 47.6994 10.9801 44.7778 12.006 42.1012C13.0318 39.4245 14.8319 37.1143 17.1766 35.4653C19.5213 33.8163 22.3042 32.9034 25.17 32.843C28.0359 32.7827 30.8547 33.5777 33.2667 35.1266C35.6787 36.6755 37.5745 38.908 38.712 41.5391C39.8495 44.1702 40.1773 47.0806 39.6533 49.8988C39.1294 52.717 37.7776 55.3151 35.7704 57.3616" stroke="#146683" stroke-width="2" stroke-linecap="round" stroke-linejoin="round"/>
<path id="Vector_2" d="M15.6367 57.6348C16.559 53.3684 20.339 50.3963 24.9658 50.3052C29.5925 50.2122 33.9829 53.0216 35.7983 57.2357" stroke="#146683" stroke-width="2" stroke-linecap="round" stroke-linejoin="round"/>
<path id="Vector_3" d="M25.4322 48.9239C28.4732 48.9239 30.9385 46.4586 30.9385 43.4175C30.9385 40.3764 28.4732 37.9111 25.4322 37.9111C22.3911 37.9111 19.9258 40.3764 19.9258 43.4175C19.9258 46.4586 22.3911 48.9239 25.4322 48.9239Z" stroke="#146683" stroke-width="2" stroke-linecap="round" stroke-linejoin="round"/>
<path id="Vector_4" d="M38.1367 40.1006L53.3422 29.4385M40.0626 52.8997L55.2681 63.5637M57.4187 35.6017C55.3277 33.6412 53.8683 31.102 53.2267 28.3084C52.5851 25.5147 52.7905 22.5933 53.8167 19.9169C54.8429 17.2405 56.6433 14.9305 58.988 13.2819C61.3328 11.6332 64.1157 10.7207 66.9815 10.6606C69.8472 10.6006 72.6658 11.3958 75.0776 12.9448C77.4894 14.4938 79.3849 16.7263 80.5223 19.3574C81.6597 21.9885 81.9872 24.8988 81.4632 27.7168C80.9392 30.5349 79.5874 33.1329 77.5803 35.1793" stroke="#146683" stroke-width="2" stroke-linecap="round" stroke-linejoin="round"/>
<path id="Vector_5" d="M57.4414 35.4504C58.3617 31.184 62.1437 28.2119 66.7705 28.1208C71.3953 28.0297 75.7876 30.8391 77.6011 35.0512" stroke="#146683" stroke-width="2" stroke-linecap="round" stroke-linejoin="round"/>
<path id="Vector_6" d="M67.2408 26.7413C70.2818 26.7413 72.7471 24.276 72.7471 21.2349C72.7471 18.1938 70.2818 15.7285 67.2408 15.7285C64.1997 15.7285 61.7344 18.1938 61.7344 21.2349C61.7344 24.276 64.1997 26.7413 67.2408 26.7413Z" stroke="#146683" stroke-width="2" stroke-linecap="round" stroke-linejoin="round"/>
<path id="Vector_7" d="M57.6595 82.3439C55.5685 80.3833 54.109 77.8442 53.4675 75.0506C52.8259 72.2569 53.0313 69.3354 54.0575 66.659C55.0837 63.9827 56.884 61.6727 59.2288 60.0241C61.5736 58.3754 64.3565 57.4629 67.2222 57.4028C70.088 57.3428 72.9066 58.138 75.3184 59.687C77.7302 61.236 79.6257 63.4685 80.7631 66.0996C81.9004 68.7306 82.228 71.6409 81.704 74.459C81.18 77.2771 79.8282 79.8751 77.8211 81.9215" stroke="#146683" stroke-width="2" stroke-linecap="round" stroke-linejoin="round"/>
<path id="Vector_8" d="M57.6836 82.1926C58.6039 77.9263 62.3859 74.9541 67.0127 74.8631C71.6375 74.7701 76.0298 77.5795 77.8452 81.7916" stroke="#146683" stroke-width="2" stroke-linecap="round" stroke-linejoin="round"/>
<path id="Vector_9" d="M67.4829 73.4815C70.524 73.4815 72.9893 71.0162 72.9893 67.9751C72.9893 64.934 70.524 62.4688 67.4829 62.4688C64.4419 62.4688 61.9766 64.934 61.9766 67.9751C61.9766 71.0162 64.4419 73.4815 67.4829 73.4815Z" stroke="#146683" stroke-width="2" stroke-linecap="round" stroke-linejoin="round"/>
</g>
</svg>
