<svg width="91" height="91" viewBox="0 0 91 91" fill="none" xmlns="http://www.w3.org/2000/svg">
<g id="material-symbols-light:loyalty-outline">
<path id="Vector" d="M49.2918 64.1664L60.8147 52.2075C61.3632 51.6589 61.7815 51.0194 62.0697 50.2889C62.3579 49.5609 62.5019 48.757 62.5019 47.8774C62.5019 46.2621 61.9294 44.8542 60.7843 43.6535C59.6367 42.4528 58.2515 41.8524 56.6287 41.8524C55.3926 41.8524 54.1742 42.176 52.9735 42.8231C51.7728 43.4702 50.5456 44.6153 49.2918 46.2583C47.9773 44.5875 46.7362 43.4361 45.5684 42.8041C44.4005 42.1722 43.196 41.8562 41.9549 41.8562C40.3321 41.8562 38.9468 42.4566 37.7992 43.6573C36.6542 44.8579 36.0816 46.2647 36.0816 47.8774C36.0816 48.757 36.2257 49.5621 36.5139 50.2927C36.802 51.0207 37.2204 51.6589 37.7689 52.2075L49.2918 64.1664ZM77.79 53.6635L53.6674 77.7898C53.0481 78.4016 52.3517 78.8603 51.5782 79.1662C50.8047 79.4721 50.0337 79.625 49.2652 79.625C48.4968 79.625 47.7321 79.4721 46.9713 79.1662C46.2104 78.8603 45.5203 78.4016 44.901 77.7898L13.1951 46.1446C12.596 45.5961 12.1436 44.9414 11.8377 44.1805C11.5318 43.4222 11.3789 42.6234 11.3789 41.7842V17.5706C11.3789 15.8669 11.9755 14.4083 13.1686 13.195C14.3617 11.9817 15.8303 11.375 17.5745 11.375H41.7881C42.6071 11.375 43.4021 11.5406 44.173 11.8717C44.944 12.2028 45.6101 12.6503 46.1712 13.214L77.79 44.8516C78.4219 45.4709 78.8819 46.1673 79.1701 46.9408C79.4583 47.7143 79.6024 48.4942 79.6024 49.2803C79.6024 50.0664 79.4583 50.8374 79.1701 51.5932C78.8819 52.349 78.4219 53.0404 77.79 53.6673M50.9639 75.1053L75.0827 50.9828C75.568 50.4974 75.8107 49.9261 75.8107 49.2689C75.8107 48.6117 75.568 48.0404 75.0827 47.5551L42.717 15.2425H17.5745C16.892 15.2425 16.3207 15.4612 15.8607 15.8985C15.3981 16.3358 15.1668 16.8944 15.1668 17.5744V41.7652C15.1668 42.0584 15.2161 42.3504 15.3147 42.6411C15.4107 42.9343 15.5801 43.2023 15.8227 43.4449L47.5362 75.1053C48.0216 75.5907 48.5916 75.8333 49.2463 75.8333C49.9035 75.8333 50.476 75.5907 50.9639 75.1053ZM24.8355 28.6574C25.8997 28.6574 26.8021 28.2884 27.5428 27.5502C28.2834 26.8121 28.655 25.9173 28.6575 24.8658C28.6575 23.7914 28.2885 22.8789 27.5504 22.1282C26.8123 21.3774 25.9174 21.0008 24.8659 20.9983C23.7916 20.9983 22.879 21.3711 22.1283 22.1168C21.3775 22.8625 21.0022 23.7687 21.0022 24.8354C21.0022 25.9021 21.375 26.8046 22.1207 27.5427C22.8664 28.2808 23.7713 28.6524 24.8355 28.6574Z" fill="#146683"/>
</g>
</svg>
