<svg width="76" height="72" viewBox="0 0 76 72" fill="none" xmlns="http://www.w3.org/2000/svg">
<g id="Quote Icon">
<path id="&#226;&#128;&#156;" d="M32.0354 48.9196C32.0354 51.7906 30.9747 54.1951 28.8533 56.133C26.732 58.071 24.0802 59.04 20.8982 59.04C17.8677 59.04 15.2917 57.9274 13.1703 55.7024C11.049 53.4773 9.98828 50.6781 9.98828 47.3046C9.98828 44.8643 10.5565 42.1727 11.693 39.2299C12.9052 36.2871 14.4583 33.3084 16.3524 30.2938C18.3222 27.2792 20.5194 24.3005 22.9438 21.3577C25.444 18.3431 27.9442 15.5439 30.4444 12.96L33.5128 15.3286C30.1034 19.1327 27.2623 22.9727 24.9894 26.8486C22.7165 30.7244 21.3528 34.5286 20.8982 38.2609C23.9287 38.4762 26.5425 39.5529 28.7397 41.4908C30.9368 43.4287 32.0354 45.905 32.0354 48.9196ZM64.6515 48.9196C64.6515 51.7906 63.5908 54.1951 61.4694 56.133C59.348 58.071 56.6963 59.04 53.5143 59.04C50.4837 59.04 47.9078 57.9274 45.7864 55.7024C43.665 53.4773 42.6044 50.6781 42.6044 47.3046C42.6044 44.8643 43.1726 42.1727 44.309 39.2299C45.5212 36.2871 47.0744 33.3084 48.9685 30.2938C50.9383 27.2792 53.1354 24.3005 55.5599 21.3577C58.0601 18.3431 60.5602 15.5439 63.0604 12.96L66.0152 15.3286C62.6059 19.1327 59.7647 22.9727 57.4918 26.8486C55.2947 30.7244 53.9688 34.5286 53.5143 38.2609C56.5448 38.4762 59.1586 39.5529 61.3558 41.4908C63.5529 43.4287 64.6515 45.905 64.6515 48.9196Z" fill="#5E5B7D"/>
</g>
</svg>
