<svg width="41" height="39" viewBox="0 0 41 39" fill="none" xmlns="http://www.w3.org/2000/svg">
<g id="Group">
<path id="Vector" d="M20.6381 37.9112L20.6156 37.915L20.4706 37.9821L20.4297 37.9898L20.4011 37.9821L20.2561 37.915C20.2343 37.9086 20.218 37.9118 20.2071 37.9246L20.1989 37.9438L20.1642 38.7641L20.1744 38.8024L20.1948 38.8273L20.4072 38.9692L20.4379 38.9768L20.4624 38.9692L20.6748 38.8273L20.6993 38.7967L20.7075 38.7641L20.6728 37.9457C20.6673 37.9252 20.6558 37.9137 20.6381 37.9112ZM21.1794 37.6946L21.1528 37.6984L20.7749 37.8767L20.7545 37.8958L20.7484 37.9169L20.7851 38.7411L20.7953 38.7641L20.8117 38.7775L21.2223 38.9558C21.2481 38.9621 21.2679 38.957 21.2815 38.9404L21.2897 38.9136L21.2202 37.7368C21.2134 37.7138 21.1998 37.6997 21.1794 37.6946ZM19.7189 37.6984C19.7099 37.6933 19.6991 37.6916 19.6889 37.6938C19.6786 37.6959 19.6696 37.7017 19.6637 37.7099L19.6515 37.7368L19.582 38.9136C19.5834 38.9366 19.595 38.9519 19.6168 38.9596L19.6474 38.9558L20.058 38.7775L20.0784 38.7622L20.0866 38.7411L20.1213 37.9169L20.1152 37.8939L20.0947 37.8748L19.7189 37.6984Z" fill="#171C1E"/>
<path id="Vector_2" d="M38.8075 28.75C39.3281 28.7505 39.8289 28.9376 40.2075 29.273C40.586 29.6083 40.8139 30.0667 40.8444 30.5543C40.8749 31.042 40.7058 31.5222 40.3716 31.8968C40.0375 32.2715 39.5635 32.5122 39.0465 32.5699L38.8075 32.5833H2.04036C1.51974 32.5828 1.01898 32.3957 0.64041 32.0604C0.261839 31.725 0.0340242 31.2667 0.00351338 30.779C-0.0269975 30.2913 0.142098 29.8111 0.476251 29.4365C0.810404 29.0619 1.28439 28.8211 1.80137 28.7634L2.04036 28.75H38.8075ZM34.7223 1.9218e-07C35.7529 -0.00030586 36.7456 0.364946 37.5014 1.02254C38.2571 1.68013 38.72 2.58145 38.7973 3.54583L38.8075 3.83333V23C38.8078 23.9671 38.4186 24.8986 37.7178 25.6077C37.017 26.3168 36.0564 26.7512 35.0287 26.8238L34.7223 26.8333H6.1256C5.09494 26.8336 4.10225 26.4684 3.34652 25.8108C2.59078 25.1532 2.12787 24.2519 2.05057 23.2875L2.04036 23V3.83333C2.04003 2.86623 2.42929 1.93475 3.13009 1.22562C3.83089 0.516486 4.79145 0.0821166 5.8192 0.00958374L6.1256 1.9218e-07H34.7223Z" fill="#171C1E"/>
</g>
</svg>
