<svg width="90" height="90" viewBox="0 0 90 90" fill="none" xmlns="http://www.w3.org/2000/svg">
<g id="icon-park-outline:connect">
<g id="Group">
<path id="Vector" d="M15 22.5C16.9891 22.5 18.8968 21.7098 20.3033 20.3033C21.7098 18.8968 22.5 16.9891 22.5 15C22.5 13.0109 21.7098 11.1032 20.3033 9.6967C18.8968 8.29018 16.9891 7.5 15 7.5C13.0109 7.5 11.1032 8.29018 9.6967 9.6967C8.29018 11.1032 7.5 13.0109 7.5 15C7.5 16.9891 8.29018 18.8968 9.6967 20.3033C11.1032 21.7098 13.0109 22.5 15 22.5ZM18.75 78.75C21.7337 78.75 24.5952 77.5647 26.705 75.455C28.8147 73.3452 30 70.4837 30 67.5C30 64.5163 28.8147 61.6548 26.705 59.545C24.5952 57.4353 21.7337 56.25 18.75 56.25C15.7663 56.25 12.9048 57.4353 10.795 59.545C8.68526 61.6548 7.5 64.5163 7.5 67.5C7.5 70.4837 8.68526 73.3452 10.795 75.455C12.9048 77.5647 15.7663 78.75 18.75 78.75ZM71.25 82.5C74.2337 82.5 77.0952 81.3147 79.205 79.205C81.3147 77.0952 82.5 74.2337 82.5 71.25C82.5 68.2663 81.3147 65.4048 79.205 63.295C77.0952 61.1853 74.2337 60 71.25 60C68.2663 60 65.4048 61.1853 63.295 63.295C61.1853 65.4048 60 68.2663 60 71.25C60 74.2337 61.1853 77.0952 63.295 79.205C65.4048 81.3147 68.2663 82.5 71.25 82.5ZM41.25 52.5C45.2282 52.5 49.0436 50.9196 51.8566 48.1066C54.6696 45.2936 56.25 41.4782 56.25 37.5C56.25 33.5218 54.6696 29.7064 51.8566 26.8934C49.0436 24.0804 45.2282 22.5 41.25 22.5C37.2718 22.5 33.4564 24.0804 30.6434 26.8934C27.8304 29.7064 26.25 33.5218 26.25 37.5C26.25 41.4782 27.8304 45.2936 30.6434 48.1066C33.4564 50.9196 37.2718 52.5 41.25 52.5ZM63.75 22.5C65.7391 22.5 67.6468 21.7098 69.0533 20.3033C70.4598 18.8968 71.25 16.9891 71.25 15C71.25 13.0109 70.4598 11.1032 69.0533 9.6967C67.6468 8.29018 65.7391 7.5 63.75 7.5C61.7609 7.5 59.8532 8.29018 58.4467 9.6967C57.0402 11.1032 56.25 13.0109 56.25 15C56.25 16.9891 57.0402 18.8968 58.4467 20.3033C59.8532 21.7098 61.7609 22.5 63.75 22.5Z" stroke="#146683" stroke-width="3" stroke-linecap="round" stroke-linejoin="round"/>
<path id="Vector_2" d="M20.625 20.625L28.125 28.125M56.25 22.5L52.5 26.25M63.75 62.8125L52.5 48.75M26.25 58.125L33.75 50.625" stroke="#146683" stroke-width="3" stroke-linecap="round" stroke-linejoin="round"/>
</g>
</g>
</svg>
