<svg width="88" height="88" viewBox="0 0 88 88" fill="none" xmlns="http://www.w3.org/2000/svg">
<g id="carbon:review">
<path id="Vector" d="M44 22L49.258 32.1833L60.5 33.8167L52.25 41.25L55 52.25L44 46.0625L33 52.25L35.75 41.25L27.5 33.8167L39.05 32.1833L44 22Z" fill="#146683"/>
<path id="Vector_2" d="M48.774 82.5L44 79.75L55 60.5H71.5C72.2226 60.5011 72.9383 60.3596 73.606 60.0836C74.2738 59.8075 74.8806 59.4024 75.3915 58.8915C75.9024 58.3806 76.3075 57.7738 76.5836 57.106C76.8596 56.4383 77.0011 55.7226 77 55V22C77.0011 21.2774 76.8596 20.5617 76.5836 19.894C76.3075 19.2262 75.9024 18.6194 75.3915 18.1085C74.8806 17.5976 74.2738 17.1925 73.606 16.9164C72.9383 16.6404 72.2226 16.4989 71.5 16.5H16.5C15.7774 16.4989 15.0617 16.6404 14.394 16.9164C13.7262 17.1925 13.1194 17.5976 12.6085 18.1085C12.0976 18.6194 11.6925 19.2262 11.4164 19.894C11.1404 20.5617 10.9989 21.2774 11 22V55C10.9989 55.7226 11.1404 56.4383 11.4164 57.106C11.6925 57.7738 12.0976 58.3806 12.6085 58.8915C13.1194 59.4024 13.7262 59.8075 14.394 60.0836C15.0617 60.3596 15.7774 60.5011 16.5 60.5H41.25V66H16.5C13.5826 66 10.7847 64.8411 8.72183 62.7782C6.65893 60.7153 5.5 57.9174 5.5 55V22C5.5 19.0826 6.65893 16.2847 8.72183 14.2218C10.7847 12.1589 13.5826 11 16.5 11H71.5C74.4174 11 77.2153 12.1589 79.2782 14.2218C81.3411 16.2847 82.5 19.0826 82.5 22V55C82.5 57.9174 81.3411 60.7153 79.2782 62.7782C77.2153 64.8411 74.4174 66 71.5 66H58.2038L48.774 82.5Z" fill="#146683"/>
</g>
</svg>
