<svg width="70" height="70" viewBox="0 0 70 70" fill="none" xmlns="http://www.w3.org/2000/svg">
<g id="material-symbols:ads-click">
<path id="Vector" d="M34.1237 52.4999C29.457 52.2569 25.5195 50.4583 22.3112 47.1041C19.1029 43.7499 17.4987 39.7152 17.4987 34.9999C17.4987 30.1388 19.2001 26.0069 22.6029 22.6041C26.0056 19.2013 30.1376 17.4999 34.9987 17.4999C39.714 17.4999 43.7487 19.1041 47.1029 22.3124C50.457 25.5208 52.2556 29.4583 52.4987 34.1249L46.3737 32.302C45.7418 29.677 44.3806 27.5264 42.2904 25.8503C40.2001 24.1742 37.7695 23.3352 34.9987 23.3333C31.7904 23.3333 29.0438 24.4756 26.7591 26.7603C24.4744 29.0451 23.332 31.7916 23.332 34.9999C23.332 37.7708 24.1711 40.2013 25.8491 42.2916C27.5272 44.3819 29.6777 45.743 32.3008 46.3749L34.1237 52.4999ZM37.6237 64.0208C37.1862 64.118 36.7487 64.1666 36.3112 64.1666H34.9987C30.964 64.1666 27.1723 63.4005 23.6237 61.8683C20.0751 60.336 16.9883 58.2584 14.3633 55.6353C11.7383 53.0123 9.66065 49.9255 8.13037 46.3749C6.60009 42.8244 5.83398 39.0327 5.83203 34.9999C5.83009 30.9671 6.5962 27.1755 8.13037 23.6249C9.66454 20.0744 11.7422 16.9876 14.3633 14.3645C16.9844 11.7414 20.0712 9.66381 23.6237 8.13159C27.1762 6.59936 30.9679 5.83325 34.9987 5.83325C39.0295 5.83325 42.8212 6.59936 46.3737 8.13159C49.9262 9.66381 53.013 11.7414 55.6341 14.3645C58.2552 16.9876 60.3338 20.0744 61.87 23.6249C63.4061 27.1755 64.1712 30.9671 64.1654 34.9999V36.3124C64.1654 36.7499 64.1168 37.1874 64.0195 37.6249L58.332 35.8749V34.9999C58.332 28.486 56.0716 22.9687 51.5508 18.4478C47.0299 13.927 41.5126 11.6666 34.9987 11.6666C28.4848 11.6666 22.9675 13.927 18.4466 18.4478C13.9258 22.9687 11.6654 28.486 11.6654 34.9999C11.6654 41.5138 13.9258 47.0312 18.4466 51.552C22.9675 56.0728 28.4848 58.3333 34.9987 58.3333H35.8737L37.6237 64.0208ZM59.8633 65.6249L47.3945 53.1562L43.7487 64.1666L34.9987 34.9999L64.1654 43.7499L53.155 47.3958L65.6237 59.8645L59.8633 65.6249Z" fill="#146683"/>
</g>
</svg>
