<svg width="73" height="76" viewBox="0 0 73 76" fill="none" xmlns="http://www.w3.org/2000/svg">
<path id="Vector" d="M20.4628 43.7038L31.2673 31.5861L7.63482 5.12396C5.80225 3.06865 2.63343 3.62529 1.48808 6.28007C-1.2226 12.6601 -0.229957 20.496 4.466 25.8055L20.4628 43.7038ZM46.3479 35.9536C52.1892 38.9937 60.3976 36.8528 66.4679 30.0446C73.76 21.8662 75.1726 10.1338 69.5604 3.83939C63.9863 -2.41218 53.5254 -0.870694 46.1951 7.30772C40.1248 14.1159 38.2158 23.322 40.9265 29.8733L6.33675 68.6673C4.84779 70.3372 4.84779 73.0348 6.33675 74.7047C7.82571 76.3747 10.231 76.3747 11.7199 74.7047L35.3524 48.2854L58.9468 74.7476C60.4357 76.4175 62.841 76.4175 64.3299 74.7476C65.8189 73.0776 65.8189 70.38 64.3299 68.7101L40.7356 42.248L46.3479 35.9536Z" fill="#146683"/>
</svg>
