<svg width="88" height="97" viewBox="0 0 88 97" fill="none" xmlns="http://www.w3.org/2000/svg">
<path id="path7" d="M15.2308 0C14.2966 0 13.5385 0.835692 13.5385 1.86538V7.46154H8.46154C7.52738 7.46154 6.76923 8.29723 6.76923 9.32692V93.2692H1.69231C0.758154 93.2692 0 94.1049 0 95.1346C0 96.1643 0.758154 97 1.69231 97H8.46154H28.7692H49.0769H66H86.3077C87.2418 97 88 96.1643 88 95.1346C88 94.1049 87.2418 93.2692 86.3077 93.2692H67.6923V26.1154H71.0769V46.6346C71.0769 47.6643 71.8351 48.5 72.7692 48.5H86.3077C87.2418 48.5 88 47.6643 88 46.6346V13.0577C88 12.028 87.2418 11.1923 86.3077 11.1923H72.7692C71.8351 11.1923 71.0769 12.028 71.0769 13.0577V14.9231H67.6923V9.32692C67.6923 8.29723 66.9342 7.46154 66 7.46154H60.9231V1.86538C60.9231 0.835692 60.1649 0 59.2308 0H15.2308ZM16.9231 3.73077H57.5385V7.46154H16.9231V3.73077ZM10.1538 11.1923H15.2308H59.2308H64.3077V16.7885V24.25V93.2692H50.7692V74.6154H52.4615C53.3957 74.6154 54.1538 73.7797 54.1538 72.75C54.1538 71.7203 53.3957 70.8846 52.4615 70.8846H49.0769H28.7692H25.3846C24.4505 70.8846 23.6923 71.7203 23.6923 72.75C23.6923 73.7797 24.4505 74.6154 25.3846 74.6154H27.0769V93.2692H10.1538V11.1923ZM15.2308 14.9231C14.2966 14.9231 13.5385 15.7588 13.5385 16.7885V27.9808C13.5385 29.0105 14.2966 29.8462 15.2308 29.8462H25.3846C26.3188 29.8462 27.0769 29.0105 27.0769 27.9808V16.7885C27.0769 15.7588 26.3188 14.9231 25.3846 14.9231H15.2308ZM32.1538 14.9231C31.2197 14.9231 30.4615 15.7588 30.4615 16.7885V27.9808C30.4615 29.0105 31.2197 29.8462 32.1538 29.8462H42.3077C43.2418 29.8462 44 29.0105 44 27.9808V16.7885C44 15.7588 43.2418 14.9231 42.3077 14.9231H32.1538ZM49.0769 14.9231C48.1428 14.9231 47.3846 15.7588 47.3846 16.7885V27.9808C47.3846 29.0105 48.1428 29.8462 49.0769 29.8462H59.2308C60.1649 29.8462 60.9231 29.0105 60.9231 27.9808V16.7885C60.9231 15.7588 60.1649 14.9231 59.2308 14.9231H49.0769ZM74.4615 14.9231H84.6154V44.7692H74.4615V24.25V16.7885V14.9231ZM16.9231 18.6538H23.6923V26.1154H16.9231V18.6538ZM33.8462 18.6538H40.6154V26.1154H33.8462V18.6538ZM50.7692 18.6538H57.5385V26.1154H50.7692V18.6538ZM67.6923 18.6538H71.0769V22.3846H67.6923V18.6538ZM79.5385 18.6538C78.6043 18.6538 77.8462 19.4895 77.8462 20.5192V39.1731C77.8462 40.2028 78.6043 41.0385 79.5385 41.0385C80.4726 41.0385 81.2308 40.2028 81.2308 39.1731V20.5192C81.2308 19.4895 80.4726 18.6538 79.5385 18.6538ZM15.2308 33.5769C14.2966 33.5769 13.5385 34.4126 13.5385 35.4423V46.6346C13.5385 47.6643 14.2966 48.5 15.2308 48.5H25.3846C26.3188 48.5 27.0769 47.6643 27.0769 46.6346V35.4423C27.0769 34.4126 26.3188 33.5769 25.3846 33.5769H15.2308ZM32.1538 33.5769C31.2197 33.5769 30.4615 34.4126 30.4615 35.4423V46.6346C30.4615 47.6643 31.2197 48.5 32.1538 48.5H42.3077C43.2418 48.5 44 47.6643 44 46.6346V35.4423C44 34.4126 43.2418 33.5769 42.3077 33.5769H32.1538ZM49.0769 33.5769C48.1428 33.5769 47.3846 34.4126 47.3846 35.4423V46.6346C47.3846 47.6643 48.1428 48.5 49.0769 48.5H59.2308C60.1649 48.5 60.9231 47.6643 60.9231 46.6346V35.4423C60.9231 34.4126 60.1649 33.5769 59.2308 33.5769H49.0769ZM16.9231 37.3077H23.6923V44.7692H16.9231V37.3077ZM33.8462 37.3077H40.6154V44.7692H33.8462V37.3077ZM50.7692 37.3077H57.5385V44.7692H50.7692V37.3077ZM15.2308 52.2308C14.2966 52.2308 13.5385 53.0665 13.5385 54.0962V65.2885C13.5385 66.3182 14.2966 67.1538 15.2308 67.1538H25.3846C26.3188 67.1538 27.0769 66.3182 27.0769 65.2885V54.0962C27.0769 53.0665 26.3188 52.2308 25.3846 52.2308H15.2308ZM32.1538 52.2308C31.2197 52.2308 30.4615 53.0665 30.4615 54.0962V65.2885C30.4615 66.3182 31.2197 67.1538 32.1538 67.1538H42.3077C43.2418 67.1538 44 66.3182 44 65.2885V54.0962C44 53.0665 43.2418 52.2308 42.3077 52.2308H32.1538ZM49.0769 52.2308C48.1428 52.2308 47.3846 53.0665 47.3846 54.0962V65.2885C47.3846 66.3182 48.1428 67.1538 49.0769 67.1538H59.2308C60.1649 67.1538 60.9231 66.3182 60.9231 65.2885V54.0962C60.9231 53.0665 60.1649 52.2308 59.2308 52.2308H49.0769ZM16.9231 55.9615H23.6923V63.4231H16.9231V55.9615ZM33.8462 55.9615H40.6154V63.4231H33.8462V55.9615ZM50.7692 55.9615H57.5385V63.4231H50.7692V55.9615ZM30.4615 74.6154H37.2308V93.2692H30.4615V74.6154ZM40.6154 74.6154H47.3846V93.2692H40.6154V74.6154Z" fill="#146683"/>
</svg>
