<svg width="65" height="98" viewBox="0 0 65 98" fill="none" xmlns="http://www.w3.org/2000/svg">
<path id="Vector" d="M6.60263 0C3.03105 0 0 2.48063 0 5.62888V92.3711C0 95.5194 3.03105 98 6.60263 98H58.3974C61.9689 98 65 95.5194 65 92.3711V5.62888C65 2.48063 61.9689 0 58.3974 0H6.60263ZM6.60263 3.0625H58.3974C60.2516 3.0625 61.5789 4.2385 61.5789 5.62888V92.3711C61.5789 93.7646 60.2516 94.9375 58.3974 94.9375H6.60263C4.74842 94.9375 3.42105 93.7646 3.42105 92.3711V5.62888C3.42105 4.2385 4.74842 3.0625 6.60263 3.0625ZM37.6247 6.11888L27.3616 6.1495L27.3753 9.212L37.6384 9.18137L37.6247 6.11888ZM8.4329 6.15562C8.0009 6.18249 7.59648 6.35357 7.30124 6.63435C7.006 6.91513 6.84192 7.2847 6.84211 7.6685C6.84165 7.86783 6.88556 8.06529 6.97132 8.24956C7.05708 8.43384 7.183 8.60132 7.34188 8.74241C7.50076 8.8835 7.68949 8.99544 7.89724 9.07181C8.105 9.14819 8.32771 9.1875 8.55263 9.1875C8.77755 9.1875 9.00026 9.14819 9.20802 9.07181C9.41578 8.99544 9.6045 8.8835 9.76338 8.74241C9.92226 8.60132 10.0482 8.43384 10.1339 8.24956C10.2197 8.06529 10.2636 7.86783 10.2632 7.6685C10.2622 7.26698 10.0816 6.88218 9.76094 6.59855C9.44025 6.31492 9.00569 6.15562 8.55263 6.15562C8.51273 6.15439 8.4728 6.15439 8.4329 6.15562ZM6.84211 12.25V79.625H58.1579V12.25H6.84211ZM10.2632 15.3125H54.7368V76.5625H10.2632V15.3125ZM32.5137 82.6875C29.6913 82.6875 27.3479 84.7547 27.3479 87.2812C27.3479 89.8078 29.6913 91.875 32.5137 91.875C35.3361 91.875 37.6795 89.8078 37.6795 87.2812C37.6795 84.7547 35.3361 82.6875 32.5137 82.6875ZM32.5137 85.75C33.5058 85.75 34.2584 86.4237 34.2584 87.2812C34.2584 88.1388 33.5058 88.8125 32.5137 88.8125C31.5216 88.8125 30.7689 88.1388 30.7689 87.2812C30.7689 86.4237 31.5216 85.75 32.5137 85.75Z" fill="#146683"/>
</svg>
