<svg width="76" height="80" viewBox="0 0 76 80" fill="none" xmlns="http://www.w3.org/2000/svg">
<g id="Group">
<path id="Vector" fill-rule="evenodd" clip-rule="evenodd" d="M38 0C17.0307 0 0 17.9258 0 40C0 62.0742 17.0307 80 38 80C58.9693 80 76.0026 62.0742 76 40C76 17.9285 58.9693 0 38 0ZM38 2.965C57.4489 2.965 73.1881 19.5288 73.1881 40C73.1881 60.4712 57.4489 77.0377 38 77.0377C18.5511 77.0377 2.81187 60.4712 2.81187 40C2.81187 19.5288 18.5511 2.965 38 2.965Z" fill="#01677D"/>
<path id="Vector_2" fill-rule="evenodd" clip-rule="evenodd" d="M36.5938 0.744141V78.4264H39.4082V0.744141H36.5938Z" fill="#01677D"/>
<path id="Vector_3" fill-rule="evenodd" clip-rule="evenodd" d="M1.58068 38.5194V41.4818H74.7688V38.5194H1.58068ZM6.68476 17.7773V20.7453H68.9599V17.7773H6.68476ZM7.29701 59.2588V62.2238H68.8904V59.2588H7.29701Z" fill="#01677D"/>
<path id="Vector_4" fill-rule="evenodd" clip-rule="evenodd" d="M33.3694 0.413985C23.3414 9.33087 16.8867 23.7609 16.8867 40.0024C16.8867 56.2928 23.3851 70.7555 33.462 79.6669L35.2706 77.3977C25.8883 69.101 19.7063 55.4642 19.7063 40.0024C19.7063 24.5868 25.8471 10.9828 35.1806 2.67789L33.3694 0.413985ZM42.3659 0.162109L40.5727 2.43957C50.0579 10.7201 56.3197 24.4379 56.3197 39.9998C56.1396 51.8709 50.1814 66.775 40.403 77.72L42.4507 79.7509C52.7154 68.2697 58.9463 52.8811 59.1341 40.0216C59.1341 23.6257 52.556 9.0765 42.3659 0.181281V0.162109Z" fill="#01677D"/>
</g>
</svg>
