<svg width="86" height="86" viewBox="0 0 86 86" fill="none" xmlns="http://www.w3.org/2000/svg">
<g id="grommet-icons:money">
<path id="Vector" d="M57.332 57.3334C57.332 53.3738 46.1019 50.1667 32.2487 50.1667M57.332 57.3334C57.332 61.293 46.1019 64.5001 32.2487 64.5001C18.3955 64.5001 7.16536 61.293 7.16536 57.3334M57.332 57.3334V75.0243C57.332 79.1057 46.1019 82.4167 32.2487 82.4167C18.3955 82.4167 7.16536 79.1093 7.16536 75.0243V57.3334M57.332 57.3334C71.0347 57.3334 82.4154 53.7967 82.4154 50.1667V14.3334M32.2487 50.1667C18.3955 50.1667 7.16536 53.3738 7.16536 57.3334M32.2487 50.1667C16.4175 50.1667 3.58203 46.63 3.58203 43.0001V25.0834M32.2487 17.9167C16.4175 17.9167 3.58203 21.1238 3.58203 25.0834M3.58203 25.0834C3.58203 29.043 16.4175 32.2501 32.2487 32.2501C32.2487 35.88 43.9053 39.4167 57.6079 39.4167C71.3106 39.4167 82.4154 35.88 82.4154 32.2501M82.4154 14.3334C82.4154 10.3738 71.307 7.16675 57.6079 7.16675C43.9089 7.16675 32.8005 10.3738 32.8005 14.3334M82.4154 14.3334C82.4154 18.293 71.307 21.5001 57.6079 21.5001C43.9089 21.5001 32.8005 18.293 32.8005 14.3334M32.8005 14.3334V50.7616" stroke="#146683" stroke-width="2.5"/>
</g>
</svg>
