<svg width="32" height="32" viewBox="0 0 32 32" fill="none" xmlns="http://www.w3.org/2000/svg">
<g id="ph:phone-call-fill">
<path id="Vector" d="M19.0338 4.741C19.0677 4.61409 19.1263 4.49511 19.2063 4.39086C19.2862 4.28661 19.3859 4.19914 19.4997 4.13344C19.6134 4.06773 19.739 4.02509 19.8693 4.00794C19.9995 3.99079 20.1319 3.99948 20.2588 4.0335C22.1126 4.51718 23.804 5.4863 25.1587 6.84104C26.5135 8.19578 27.4826 9.88717 27.9663 11.741C28.0003 11.8679 28.009 12.0002 27.9918 12.1305C27.9747 12.2607 27.932 12.3863 27.8663 12.5001C27.8006 12.6138 27.7131 12.7135 27.6089 12.7935C27.5047 12.8734 27.3857 12.9321 27.2588 12.966C27.1743 12.9882 27.0873 12.9995 27 12.9997C26.7798 12.9998 26.5657 12.9272 26.391 12.7932C26.2163 12.6591 26.0907 12.4712 26.0338 12.2585C25.6395 10.7449 24.8486 9.36389 23.7428 8.2578C22.6369 7.15171 21.256 6.36059 19.7425 5.966C19.6155 5.93219 19.4964 5.87366 19.392 5.79378C19.2876 5.71389 19.2 5.61421 19.1342 5.50044C19.0683 5.38666 19.0256 5.26103 19.0084 5.13071C18.9911 5.0004 18.9998 4.86797 19.0338 4.741ZM18.7425 9.966C20.4663 10.426 21.5738 11.5347 22.0338 13.2585C22.0907 13.4712 22.2163 13.6591 22.391 13.7932C22.5657 13.9272 22.7798 13.9998 23 13.9997C23.0873 13.9995 23.1743 13.9882 23.2588 13.966C23.3857 13.9321 23.5047 13.8734 23.6089 13.7935C23.7131 13.7135 23.8006 13.6138 23.8663 13.5001C23.932 13.3863 23.9747 13.2607 23.9918 13.1305C24.009 13.0002 24.0003 12.8679 23.9663 12.741C23.3263 10.346 21.6538 8.6735 19.2588 8.0335C19.1319 7.9996 18.9995 7.99103 18.8693 8.00827C18.7391 8.02551 18.6136 8.06823 18.4999 8.13398C18.3862 8.19974 18.2866 8.28724 18.2067 8.3915C18.1268 8.49576 18.0683 8.61473 18.0344 8.74162C18.0005 8.86851 17.9919 9.00084 18.0092 9.13104C18.0264 9.26124 18.0691 9.38677 18.1349 9.50047C18.2006 9.61416 18.2881 9.71379 18.3924 9.79367C18.4967 9.87354 18.6156 9.9321 18.7425 9.966ZM27.7963 19.8072L21.9075 17.1685L21.8913 17.161C21.5856 17.0302 21.2521 16.9778 20.921 17.0083C20.5899 17.0389 20.2716 17.1515 19.995 17.336C19.9624 17.3575 19.9311 17.3809 19.9013 17.406L16.8588 19.9997C14.9313 19.0635 12.9413 17.0885 12.005 15.186L14.6025 12.0972C14.6275 12.066 14.6513 12.0347 14.6738 12.001C14.8543 11.7251 14.9638 11.4089 14.9926 11.0805C15.0214 10.752 14.9686 10.4216 14.8388 10.1185V10.1035L12.1925 4.20475C12.0209 3.80883 11.7259 3.47902 11.3515 3.26455C10.9771 3.05007 10.5433 2.96245 10.115 3.01475C8.42122 3.23763 6.86649 4.06946 5.74118 5.35487C4.61587 6.64028 3.99695 8.29136 4.00001 9.99975C4.00001 19.9247 12.075 27.9998 22 27.9998C23.7084 28.0028 25.3595 27.3839 26.6449 26.2586C27.9303 25.1333 28.7621 23.5785 28.985 21.8847C29.0374 21.4566 28.95 21.0229 28.7357 20.6485C28.5215 20.2741 28.1919 19.979 27.7963 19.8072Z" fill="#D0E6F3"/>
</g>
</svg>
