<svg width="24" height="25" viewBox="0 0 24 25" fill="none" xmlns="http://www.w3.org/2000/svg">
<path id="Vector" fill-rule="evenodd" clip-rule="evenodd" d="M12.875 0.125V8.60974C14.4772 9.17602 15.625 10.7039 15.625 12.5C15.625 14.2961 14.4772 15.824 12.875 16.3903V24.875H15.7591V21.8852C16.2427 21.6459 16.7057 21.3669 17.1433 21.0511L17.5669 21.3085L19.6171 22.5448L20.8002 20.4027L22.6919 16.9723L23.875 14.8289L21.8271 13.5914L21.4036 13.3378C21.4272 13.0569 21.4391 12.7784 21.4391 12.5C21.4391 12.2216 21.4272 11.9431 21.4036 11.6622L21.8271 11.4086L23.875 10.1711L22.6919 8.02766L20.8002 4.59734L19.6171 2.45524L17.5669 3.69145L17.1433 3.94888C16.7057 3.63308 16.2427 3.35409 15.7591 3.11479V0.125H12.875ZM0.5 5.62511C0.5 2.82037 4.69886 0.505918 10.125 0.167668V11.0825C4.82945 10.7524 0.702834 8.54006 0.507283 5.82672L0.5 5.62511ZM0.507283 8.57674C0.702834 11.2901 4.82945 13.5024 10.125 13.8325V17.9575C4.82945 17.6274 0.702834 15.4151 0.507283 12.7017L0.5 12.5001V8.37506L0.507283 8.57674ZM0.507283 15.4517C0.702834 18.165 4.82945 20.3773 10.125 20.7075V24.8325C4.82945 24.5023 0.702834 22.29 0.507283 19.5767L0.5 19.3751V15.2501L0.507283 15.4517Z" fill="#146683"/>
</svg>
