<svg width="26" height="26" viewBox="0 0 26 26" fill="none" xmlns="http://www.w3.org/2000/svg">
<path id="Vector" d="M6.02769 7.26494C5.29386 7.69762 4.42742 7.84781 3.59078 7.68736C2.75414 7.52691 2.00474 7.06683 1.48305 6.39336C0.961367 5.71989 0.703213 4.87928 0.756983 4.02909C0.810753 3.1789 1.17275 2.37751 1.77513 1.77513C2.37751 1.17275 3.1789 0.810753 4.02909 0.756983C4.87928 0.703213 5.71989 0.961367 6.39336 1.48305C7.06683 2.00474 7.52691 2.75414 7.68736 3.59078C7.84781 4.42742 7.69762 5.29386 7.26494 6.02769L11.2217 9.98269C11.7606 9.66579 12.3745 9.49901 12.9997 9.49969C13.6472 9.49969 14.2562 9.67644 14.7777 9.98444L18.7327 6.02769C18.3 5.29386 18.1498 4.42742 18.3103 3.59078C18.4707 2.75414 18.9308 2.00474 19.6043 1.48305C20.2777 0.961367 21.1183 0.703213 21.9685 0.756983C22.8187 0.810753 23.6201 1.17275 24.2225 1.77513C24.8249 2.37751 25.1869 3.1789 25.2406 4.02909C25.2944 4.87928 25.0363 5.71989 24.5146 6.39336C23.9929 7.06683 23.2435 7.52691 22.4068 7.68736C21.5702 7.84781 20.7038 7.69762 19.9699 7.26494L16.0149 11.2217C16.3344 11.7597 16.503 12.3739 16.503 12.9997C16.503 13.6254 16.3344 14.2396 16.0149 14.7777L19.9717 18.7327C20.7055 18.3 21.572 18.1498 22.4086 18.3103C23.2452 18.4707 23.9946 18.9308 24.5163 19.6043C25.038 20.2777 25.2962 21.1183 25.2424 21.9685C25.1886 22.8187 24.8266 23.6201 24.2242 24.2225C23.6219 24.8249 22.8205 25.1869 21.9703 25.2406C21.1201 25.2944 20.2795 25.0363 19.606 24.5146C18.9325 23.9929 18.4725 23.2435 18.312 22.4068C18.1516 21.5702 18.3018 20.7038 18.7344 19.9699L14.7777 16.0149C14.239 16.3325 13.625 16.4998 12.9997 16.4997C12.3744 16.4998 11.7604 16.3325 11.2217 16.0149L7.26669 19.9717C7.69937 20.7055 7.84956 21.572 7.68911 22.4086C7.52866 23.2452 7.06858 23.9946 6.39511 24.5163C5.72164 25.038 4.88103 25.2962 4.03084 25.2424C3.18065 25.1886 2.37926 24.8266 1.77688 24.2242C1.1745 23.6219 0.812503 22.8205 0.758733 21.9703C0.704963 21.1201 0.963117 20.2795 1.4848 19.606C2.00649 18.9325 2.75589 18.4725 3.59253 18.312C4.42917 18.1516 5.29561 18.3018 6.02944 18.7344L9.98444 14.7777C9.66692 14.239 9.49954 13.625 9.49969 12.9997C9.49969 12.3522 9.67644 11.7432 9.98444 11.2217L6.02769 7.26494Z" fill="white"/>
</svg>
