<svg width="26" height="19" viewBox="0 0 26 19" fill="none" xmlns="http://www.w3.org/2000/svg">
<path id="Vector" d="M1.33073 18.166C1.00017 18.166 0.723285 18.054 0.500062 17.83C0.27684 17.606 0.16484 17.3291 0.164062 16.9994V1.83269C0.164062 1.50213 0.276062 1.22524 0.500062 1.00202C0.724062 0.778798 1.00095 0.666797 1.33073 0.66602C1.66051 0.665242 1.93778 0.777242 2.16256 1.00202C2.38734 1.2268 2.49895 1.50369 2.4974 1.83269V12.3327H11.8307V5.33269C11.8307 4.69102 12.0594 4.14191 12.5167 3.68535C12.9741 3.2288 13.5232 3.00013 14.1641 2.99935H21.1641C22.4474 2.99935 23.546 3.4563 24.4599 4.37019C25.3738 5.28408 25.8307 6.38269 25.8307 7.66602V16.9994C25.8307 17.3299 25.7187 17.6072 25.4947 17.8312C25.2707 18.0552 24.9938 18.1668 24.6641 18.166C24.3343 18.1652 24.0574 18.0532 23.8334 17.83C23.6094 17.6068 23.4974 17.3299 23.4974 16.9994V14.666H2.4974V16.9994C2.4974 17.3299 2.3854 17.6072 2.1614 17.8312C1.9374 18.0552 1.66051 18.1668 1.33073 18.166ZM7.16406 11.166C6.19184 11.166 5.36545 10.8257 4.6849 10.1452C4.00434 9.46463 3.66406 8.63824 3.66406 7.66602C3.66406 6.6938 4.00434 5.86741 4.6849 5.18685C5.36545 4.5063 6.19184 4.16602 7.16406 4.16602C8.13628 4.16602 8.96267 4.5063 9.64323 5.18685C10.3238 5.86741 10.6641 6.6938 10.6641 7.66602C10.6641 8.63824 10.3238 9.46463 9.64323 10.1452C8.96267 10.8257 8.13628 11.166 7.16406 11.166ZM14.1641 12.3327H23.4974V7.66602C23.4974 7.02435 23.2691 6.47524 22.8126 6.01869C22.356 5.56213 21.8065 5.33346 21.1641 5.33269H14.1641V12.3327ZM7.16406 8.83269C7.49462 8.83269 7.7719 8.72069 7.9959 8.49669C8.2199 8.27269 8.33151 7.9958 8.33073 7.66602C8.32995 7.33624 8.21795 7.05935 7.99473 6.83535C7.77151 6.61135 7.49462 6.49935 7.16406 6.49935C6.83351 6.49935 6.55662 6.61135 6.3334 6.83535C6.11017 7.05935 5.99817 7.33624 5.9974 7.66602C5.99662 7.9958 6.10862 8.27308 6.3334 8.49785C6.55817 8.72263 6.83506 8.83424 7.16406 8.83269Z" fill="#01677D"/>
</svg>
