<svg width="32" height="35" viewBox="0 0 32 35" fill="none" xmlns="http://www.w3.org/2000/svg">
<path id="Vector" d="M15.6875 3.5C14.1791 3.5 12.7324 4.09922 11.6658 5.16583C10.5992 6.23244 10 7.67908 10 9.1875C10 10.6959 10.5992 12.1426 11.6658 13.2092C12.7324 14.2758 14.1791 14.875 15.6875 14.875C17.1959 14.875 18.6426 14.2758 19.7092 13.2092C20.7758 12.1426 21.375 10.6959 21.375 9.1875C21.375 7.67908 20.7758 6.23244 19.7092 5.16583C18.6426 4.09922 17.1959 3.5 15.6875 3.5ZM6.75 9.1875C6.75 6.81713 7.69163 4.54384 9.36773 2.86773C11.0438 1.19163 13.3171 0.25 15.6875 0.25C18.0579 0.25 20.3312 1.19163 22.0073 2.86773C23.6834 4.54384 24.625 6.81713 24.625 9.1875C24.625 11.5579 23.6834 13.8312 22.0073 15.5073C20.3312 17.1834 18.0579 18.125 15.6875 18.125C13.3171 18.125 11.0438 17.1834 9.36773 15.5073C7.69163 13.8312 6.75 11.5579 6.75 9.1875ZM27.8474 18.0958L28.8273 19.3925C30.3187 21.3678 31.1252 23.7757 31.1243 26.2508C31.1234 28.726 30.3152 31.1333 28.8224 33.1075L27.8425 34.4043L25.2506 32.4445L26.2305 31.1478C27.297 29.7375 27.8743 28.0178 27.8749 26.2497C27.8755 24.4816 27.2993 22.7616 26.2337 21.3506L25.2539 20.0539L27.8474 18.0958ZM10 23C8.27609 23 6.62279 23.6848 5.40381 24.9038C4.18482 26.1228 3.5 27.7761 3.5 29.5H18.2063V32.75H0.25V29.5C0.25 26.9141 1.27723 24.4342 3.10571 22.6057C4.93419 20.7772 7.41414 19.75 10 19.75H18.125V23H10ZM23.3088 21.5213L24.2886 22.8196C25.0345 23.8072 25.4378 25.0111 25.4375 26.2486C25.4373 27.4862 25.0333 28.6899 24.287 29.6771L23.3055 30.9739L20.7136 29.0141L21.6951 27.7174C22.015 27.2941 22.1881 26.7781 22.1881 26.2476C22.1881 25.717 22.015 25.201 21.6951 24.7778L20.7169 23.481L23.3088 21.5213Z" fill="#146683"/>
</svg>
