<svg width="76" height="60" viewBox="0 0 76 60" fill="none" xmlns="http://www.w3.org/2000/svg">
<path id="Vector" d="M38 34.4841L45.0511 38.306C45.6591 38.6471 46.2699 38.6195 46.8836 38.2233C47.4944 37.8245 47.7224 37.2904 47.5676 36.6208L45.6971 29.5223L51.9038 24.7712C52.4949 24.3023 52.6778 23.7606 52.4527 23.1461C52.2275 22.5317 51.7293 22.1932 50.958 22.1305L42.7838 21.4722L39.5749 14.7725C39.2765 14.163 38.7516 13.8583 38 13.8583C37.2484 13.8583 36.7235 14.163 36.4251 14.7725L33.2162 21.4684L25.042 22.1305C24.2736 22.1932 23.7753 22.5317 23.5473 23.1461C23.3193 23.7606 23.5023 24.3023 24.0962 24.7712L30.3029 29.5223L28.4367 36.617C28.279 37.2891 28.5056 37.8245 29.1164 38.2233C29.7273 38.622 30.3395 38.6496 30.9531 38.306L38 34.4841ZM12.9918 52.6647L5.79711 59.0748C4.7303 60.0252 3.49741 60.2434 2.09844 59.7293C0.699481 59.2152 0 58.281 0 56.9268V6.07901C0 4.34609 0.65163 2.90032 1.95489 1.7417C3.25815 0.583074 4.88089 0.00250784 6.82311 0H69.1811C71.1233 0 72.7461 0.580566 74.0493 1.7417C75.3526 2.90283 76.0028 4.3486 76 6.07901V46.5895C76 48.3199 75.3498 49.7656 74.0493 50.9268C72.7489 52.0879 71.1261 52.6672 69.1811 52.6647H12.9918ZM11.1889 48.9029H69.1811C69.8285 48.9029 70.4239 48.6622 70.9671 48.1807C71.5104 47.6992 71.7806 47.1688 71.7778 46.5895V6.07525C71.7778 5.49845 71.5076 4.96804 70.9671 4.48402C70.4267 4.00001 69.8313 3.75926 69.1811 3.76176H6.81889C6.17148 3.76176 5.57615 4.00252 5.03289 4.48402C4.48963 4.96553 4.21941 5.49594 4.22222 6.07525V55.091L11.1889 48.9029Z" fill="#146683"/>
</svg>
