<svg width="63" height="56" viewBox="0 0 63 56" fill="none" xmlns="http://www.w3.org/2000/svg">
<g id="Group 143725966">
<path id="Vector" d="M16.75 21.1664H31.5V2H19.1826L16.75 21.1664Z" stroke="#BFE9FF" stroke-width="3" stroke-linecap="round" stroke-linejoin="round"/>
<path id="Vector_2" d="M19.1826 2H9.02251C8.34654 2.00019 7.69009 2.23048 7.15788 2.65416C6.62568 3.07783 6.24836 3.67047 6.08613 4.33756L2 21.1664M2 21.1664H16.75M2 21.1664C2 23.1548 2.77701 25.0617 4.16009 26.4677C5.54317 27.8737 7.41903 28.6635 9.375 28.6635C11.331 28.6635 13.2068 27.8737 14.5899 26.4677C15.973 25.0617 16.75 23.1548 16.75 21.1664M16.75 21.1664C16.75 23.1548 17.527 25.0617 18.9101 26.4677C20.2932 27.8737 22.169 28.6635 24.125 28.6635C26.081 28.6635 27.9568 27.8737 29.3399 26.4677C30.723 25.0617 31.5 23.1548 31.5 21.1664M31.5 21.1664H46.25M31.5 21.1664V2H43.8174M31.5 21.1664C31.5 23.1548 32.277 25.0617 33.6601 26.4677C35.0432 27.8737 36.919 28.6635 38.875 28.6635C40.831 28.6635 42.7068 27.8737 44.0899 26.4677C45.473 25.0617 46.25 23.1548 46.25 21.1664M46.25 21.1664L43.8174 2M46.25 21.1664H61M46.25 21.1664C46.25 23.1548 47.027 25.0617 48.4101 26.4677C49.7932 27.8737 51.669 28.6635 53.625 28.6635C55.581 28.6635 57.4568 27.8737 58.8399 26.4677C60.223 25.0617 61 23.1548 61 21.1664M43.8174 2H53.9775C54.6535 2.00019 55.3099 2.23048 55.8421 2.65416C56.3743 3.07783 56.7516 3.67047 56.9139 4.33756L61 21.1664" stroke="#BFE9FF" stroke-width="3" stroke-linecap="round" stroke-linejoin="round"/>
<path id="Vector_3" d="M6.27344 27.9639V50.9242C6.27344 51.74 6.59221 52.5223 7.15963 53.0991C7.72705 53.6759 8.49663 53.9999 9.29908 53.9999H53.7004C54.5028 53.9999 55.2724 53.6759 55.8398 53.0991C56.4072 52.5223 56.726 51.74 56.726 50.9242V27.9639" stroke="#BFE9FF" stroke-width="3" stroke-linecap="round" stroke-linejoin="round"/>
<path id="Vector_4" d="M45.871 42.715H51.8557C51.8748 43.518 51.7382 44.317 51.4535 45.0663C51.1689 45.8155 50.7418 46.5005 50.1968 47.082C49.6517 47.6635 48.9993 48.1302 48.2768 48.4554C47.5543 48.7806 46.7759 48.9579 45.986 48.9772L45.8695 48.9788C44.2351 48.9788 42.6677 48.3188 41.512 47.1439C40.3563 45.9691 39.707 44.3757 39.707 42.7143C39.707 41.0528 40.3563 39.4594 41.512 38.2846C42.6677 37.1098 44.2351 36.4498 45.8695 36.4498C46.942 36.4444 47.9966 36.7289 48.9254 37.2741" stroke="#BFE9FF" stroke-width="3" stroke-linecap="round" stroke-linejoin="round"/>
</g>
</svg>
