<svg width="61" height="61" viewBox="0 0 61 61" fill="none" xmlns="http://www.w3.org/2000/svg">
<g id="&#240;&#159;&#166;&#134; icon &#34;emblem marketing&#34;">
<path id="Vector" d="M4.83637 0C2.16036 0 0 2.16036 0 4.83637V56.1636C0 58.8396 2.16036 61 4.83637 61H56.1636C58.8396 61 61 58.8396 61 56.1636V4.83637C61 2.16036 58.8396 0 56.1636 0H4.83637ZM42.9717 12.5334H50.2159C51.648 12.5334 52.809 13.6944 52.809 15.1265V45.1326C52.809 46.5647 51.648 47.7257 50.2159 47.7257H42.9717C41.5395 47.7257 40.3785 46.5647 40.3785 45.1326V15.1265C40.3785 13.6944 41.5395 12.5334 42.9717 12.5334ZM26.8779 24.5111H34.1221C35.5542 24.5111 36.7153 25.6721 36.7153 27.1043V45.1326C36.7153 46.5647 35.5542 47.7257 34.1221 47.7257H26.8779C25.4458 47.7257 24.2847 46.5647 24.2847 45.1326V27.1043C24.2847 25.6721 25.4458 24.5111 26.8779 24.5111ZM10.7841 34.6161H18.0283C19.4605 34.6161 20.6215 35.7771 20.6215 37.2092V45.1326C20.6215 46.5647 19.4605 47.7257 18.0283 47.7257H10.7841C9.35196 47.7257 8.19096 46.5647 8.19096 45.1326V37.2092C8.19096 35.7771 9.35196 34.6161 10.7841 34.6161ZM8.97301 51.0391H52.027C52.4562 51.0391 52.809 51.3714 52.809 51.8006V53.0354C52.809 53.4647 52.4562 53.8175 52.027 53.8175H8.97301C8.54377 53.8175 8.19096 53.4647 8.19096 53.0354V51.8006C8.19096 51.3714 8.54377 51.0391 8.97301 51.0391Z" fill="#146683"/>
</g>
</svg>
