<svg width="72" height="72" viewBox="0 0 72 72" fill="none" xmlns="http://www.w3.org/2000/svg">
<g id="uil:channel">
<path id="Vector" d="M60 48C58.1379 48.0096 56.3246 48.5966 54.81 49.68L47.46 45.33C47.8086 44.254 47.9907 43.131 48 42C47.9914 39.3463 47.1034 36.7704 45.4749 34.6751C43.8465 32.5798 41.5694 31.0834 39 30.42V23.46C41.0016 22.7523 42.6887 21.3598 43.7629 19.5286C44.8371 17.6973 45.2294 15.5453 44.8704 13.4528C44.5114 11.3603 43.4242 9.46212 41.801 8.0937C40.1778 6.72527 38.1231 5.97473 36 5.97473C33.8769 5.97473 31.8222 6.72527 30.199 8.0937C28.5758 9.46212 27.4886 11.3603 27.1296 13.4528C26.7706 15.5453 27.1629 17.6973 28.2371 19.5286C29.3113 21.3598 30.9984 22.7523 33 23.46V30.42C30.4306 31.0834 28.1535 32.5798 26.5251 34.6751C24.8966 36.7704 24.0086 39.3463 24 42C24.0093 43.131 24.1914 44.254 24.54 45.33L17.19 49.68C15.6755 48.5966 13.8621 48.0096 12 48C10.22 48 8.47992 48.5279 6.99987 49.5168C5.51983 50.5057 4.36628 51.9113 3.68509 53.5559C3.0039 55.2004 2.82567 57.01 3.17294 58.7558C3.5202 60.5017 4.37737 62.1053 5.63604 63.364C6.89472 64.6226 8.49836 65.4798 10.2442 65.8271C11.99 66.1743 13.7996 65.9961 15.4442 65.3149C17.0887 64.6337 18.4943 63.4802 19.4832 62.0001C20.4722 60.5201 21 58.78 21 57C20.9889 56.1874 20.8678 55.3801 20.64 54.6L27.54 50.49C29.7884 52.725 32.8298 53.9795 36 53.9795C39.1702 53.9795 42.2117 52.725 44.46 50.49L51.36 54.6C50.8573 56.4168 50.9378 58.3456 51.5901 60.1142C52.2424 61.8828 53.4336 63.402 54.9955 64.4573C56.5575 65.5127 58.4114 66.0509 60.2957 65.9961C62.18 65.9414 63.9995 65.2963 65.4975 64.152C66.9955 63.0077 68.0964 61.4219 68.6448 59.6183C69.1933 57.8148 69.1615 55.8846 68.5541 54.1001C67.9468 52.3155 66.7944 50.7668 65.2596 49.6723C63.7248 48.5778 61.8851 47.9929 60 48ZM12 60C11.4067 60 10.8266 59.8241 10.3333 59.4944C9.83995 59.1648 9.45543 58.6962 9.22837 58.1481C9.0013 57.5999 8.94189 56.9967 9.05765 56.4147C9.1734 55.8328 9.45913 55.2982 9.87868 54.8787C10.2982 54.4591 10.8328 54.1734 11.4147 54.0577C11.9967 53.9419 12.5999 54.0013 13.1481 54.2284C13.6962 54.4554 14.1648 54.84 14.4944 55.3333C14.8241 55.8266 15 56.4067 15 57C15 57.7957 14.6839 58.5587 14.1213 59.1213C13.5587 59.6839 12.7957 60 12 60ZM36 12C36.5933 12 37.1734 12.176 37.6667 12.5056C38.1601 12.8352 38.5446 13.3038 38.7716 13.852C38.9987 14.4001 39.0581 15.0033 38.9424 15.5853C38.8266 16.1672 38.5409 16.7018 38.1213 17.1213C37.7018 17.5409 37.1672 17.8266 36.5853 17.9424C36.0033 18.0581 35.4001 17.9987 34.852 17.7717C34.3038 17.5446 33.8352 17.1601 33.5056 16.6667C33.176 16.1734 33 15.5934 33 15C33 14.2044 33.3161 13.4413 33.8787 12.8787C34.4413 12.3161 35.2044 12 36 12ZM36 48C34.8133 48 33.6533 47.6481 32.6666 46.9888C31.6799 46.3295 30.9109 45.3925 30.4567 44.2961C30.0026 43.1998 29.8838 41.9934 30.1153 40.8295C30.3468 39.6656 30.9183 38.5965 31.7574 37.7574C32.5965 36.9183 33.6656 36.3468 34.8295 36.1153C35.9934 35.8838 37.1997 36.0026 38.2961 36.4567C39.3925 36.9109 40.3295 37.6799 40.9888 38.6666C41.6481 39.6533 42 40.8133 42 42C42 43.5913 41.3679 45.1174 40.2426 46.2427C39.1174 47.3679 37.5913 48 36 48ZM60 60C59.4067 60 58.8266 59.8241 58.3333 59.4944C57.84 59.1648 57.4554 58.6962 57.2284 58.1481C57.0013 57.5999 56.9419 56.9967 57.0577 56.4147C57.1734 55.8328 57.4591 55.2982 57.8787 54.8787C58.2982 54.4591 58.8328 54.1734 59.4147 54.0577C59.9967 53.9419 60.5999 54.0013 61.1481 54.2284C61.6962 54.4554 62.1648 54.84 62.4944 55.3333C62.8241 55.8266 63 56.4067 63 57C63 57.7957 62.6839 58.5587 62.1213 59.1213C61.5587 59.6839 60.7957 60 60 60Z" fill="white"/>
</g>
</svg>
