<svg width="57" height="61" viewBox="0 0 57 61" fill="none" xmlns="http://www.w3.org/2000/svg">
<path id="Vector" d="M40.7143 38.3429L57 55.7714L52.1143 61L35.8286 43.5714V40.8177L34.9491 39.8417C31.119 43.3761 26.2288 45.3184 21.1714 45.3143C15.5564 45.3143 10.1714 42.9272 6.20097 38.6782C2.23055 34.4291 0 28.6662 0 22.6571C0 16.6481 2.23055 10.8852 6.20097 6.63612C10.1714 2.38708 15.5564 0 21.1714 0C26.7864 0 32.1715 2.38708 36.1419 6.63612C40.1123 10.8852 42.3429 16.6481 42.3429 22.6571C42.3429 28.2691 40.4211 33.428 37.2291 37.4017L38.1411 38.3429H40.7143ZM21.1714 5.22857L19.38 5.33314C18.5983 7.14571 17.3931 10.2131 16.5137 13.9429H25.8291C24.9497 10.2131 23.7446 7.14571 22.9629 5.33314C22.3766 5.22857 21.7903 5.22857 21.1714 5.22857ZM35.2749 13.9429C33.3386 10.3157 30.2362 7.56548 26.5457 6.20457C27.3274 8.052 28.3371 10.736 29.0863 13.9429H35.2749ZM7.068 13.9429H13.2566C14.0057 10.736 15.0154 8.052 15.7971 6.20457C12.1067 7.56548 9.0043 10.3157 7.068 13.9429ZM4.88571 22.6571C4.88571 24.4 5.14629 26.2474 5.63486 27.8857H12.6051L12.2143 22.6571L12.6051 17.4286H5.63486C5.14629 19.0669 4.88571 20.9143 4.88571 22.6571ZM36.708 27.8857C37.1966 26.2474 37.4571 24.4 37.4571 22.6571C37.4571 20.9143 37.1966 19.0669 36.708 17.4286H29.7377C30.2552 20.8923 30.2552 24.422 29.7377 27.8857H36.708ZM15.8623 17.4286L15.4714 22.6571L15.8623 27.8857H26.4806C26.9981 24.422 26.9981 20.8923 26.4806 17.4286H15.8623ZM21.1714 40.0857C21.7577 40.0857 22.344 40.0857 22.8977 39.9811C23.712 38.1686 24.9497 35.1011 25.8291 31.3714H16.5137C17.3931 35.1011 18.6309 38.1686 19.4451 39.9811L21.1714 40.0857ZM35.2749 31.3714H29.0863C28.3371 34.5783 27.3274 37.2623 26.5457 39.1097C30.2362 37.7488 33.3386 34.9986 35.2749 31.3714ZM7.068 31.3714C9.0043 34.9986 12.1067 37.7488 15.7971 39.1097C15.0154 37.2623 14.0057 34.5783 13.2566 31.3714H7.068Z" fill="#CEE6F0"/>
</svg>
