<svg width="33" height="32" viewBox="0 0 33 32" fill="none" xmlns="http://www.w3.org/2000/svg">
<path id="path7" d="M6.26112 0C5.92143 0 5.64573 0.275692 5.64573 0.615385V2.46154H3.79958C3.45989 2.46154 3.18419 2.73723 3.18419 3.07692V30.7692H1.33804C0.998349 30.7692 0.722656 31.0449 0.722656 31.3846C0.722656 31.7243 0.998349 32 1.33804 32H3.79958H11.1842H18.5688H24.7227H32.1073C32.447 32 32.7227 31.7243 32.7227 31.3846C32.7227 31.0449 32.447 30.7692 32.1073 30.7692H25.338V8.61539H26.5688V15.3846C26.5688 15.7243 26.8445 16 27.1842 16H32.1073C32.447 16 32.7227 15.7243 32.7227 15.3846V4.30769C32.7227 3.968 32.447 3.69231 32.1073 3.69231H27.1842C26.8445 3.69231 26.5688 3.968 26.5688 4.30769V4.92308H25.338V3.07692C25.338 2.73723 25.0623 2.46154 24.7227 2.46154H22.8765V0.615385C22.8765 0.275692 22.6008 0 22.2611 0H6.26112ZM6.8765 1.23077H21.6457V2.46154H6.8765V1.23077ZM4.41496 3.69231H6.26112H22.2611H24.1073V5.53846V8V30.7692H19.1842V24.6154H19.7996C20.1393 24.6154 20.415 24.3397 20.415 24C20.415 23.6603 20.1393 23.3846 19.7996 23.3846H18.5688H11.1842H9.95343C9.61373 23.3846 9.33804 23.6603 9.33804 24C9.33804 24.3397 9.61373 24.6154 9.95343 24.6154H10.5688V30.7692H4.41496V3.69231ZM6.26112 4.92308C5.92143 4.92308 5.64573 5.19877 5.64573 5.53846V9.23077C5.64573 9.57046 5.92143 9.84615 6.26112 9.84615H9.95343C10.2931 9.84615 10.5688 9.57046 10.5688 9.23077V5.53846C10.5688 5.19877 10.2931 4.92308 9.95343 4.92308H6.26112ZM12.415 4.92308C12.0753 4.92308 11.7996 5.19877 11.7996 5.53846V9.23077C11.7996 9.57046 12.0753 9.84615 12.415 9.84615H16.1073C16.447 9.84615 16.7227 9.57046 16.7227 9.23077V5.53846C16.7227 5.19877 16.447 4.92308 16.1073 4.92308H12.415ZM18.5688 4.92308C18.2291 4.92308 17.9534 5.19877 17.9534 5.53846V9.23077C17.9534 9.57046 18.2291 9.84615 18.5688 9.84615H22.2611C22.6008 9.84615 22.8765 9.57046 22.8765 9.23077V5.53846C22.8765 5.19877 22.6008 4.92308 22.2611 4.92308H18.5688ZM27.7996 4.92308H31.4919V14.7692H27.7996V8V5.53846V4.92308ZM6.8765 6.15385H9.33804V8.61539H6.8765V6.15385ZM13.0303 6.15385H15.4919V8.61539H13.0303V6.15385ZM19.1842 6.15385H21.6457V8.61539H19.1842V6.15385ZM25.338 6.15385H26.5688V7.38462H25.338V6.15385ZM29.6457 6.15385C29.306 6.15385 29.0303 6.42954 29.0303 6.76923V12.9231C29.0303 13.2628 29.306 13.5385 29.6457 13.5385C29.9854 13.5385 30.2611 13.2628 30.2611 12.9231V6.76923C30.2611 6.42954 29.9854 6.15385 29.6457 6.15385ZM6.26112 11.0769C5.92143 11.0769 5.64573 11.3526 5.64573 11.6923V15.3846C5.64573 15.7243 5.92143 16 6.26112 16H9.95343C10.2931 16 10.5688 15.7243 10.5688 15.3846V11.6923C10.5688 11.3526 10.2931 11.0769 9.95343 11.0769H6.26112ZM12.415 11.0769C12.0753 11.0769 11.7996 11.3526 11.7996 11.6923V15.3846C11.7996 15.7243 12.0753 16 12.415 16H16.1073C16.447 16 16.7227 15.7243 16.7227 15.3846V11.6923C16.7227 11.3526 16.447 11.0769 16.1073 11.0769H12.415ZM18.5688 11.0769C18.2291 11.0769 17.9534 11.3526 17.9534 11.6923V15.3846C17.9534 15.7243 18.2291 16 18.5688 16H22.2611C22.6008 16 22.8765 15.7243 22.8765 15.3846V11.6923C22.8765 11.3526 22.6008 11.0769 22.2611 11.0769H18.5688ZM6.8765 12.3077H9.33804V14.7692H6.8765V12.3077ZM13.0303 12.3077H15.4919V14.7692H13.0303V12.3077ZM19.1842 12.3077H21.6457V14.7692H19.1842V12.3077ZM6.26112 17.2308C5.92143 17.2308 5.64573 17.5065 5.64573 17.8462V21.5385C5.64573 21.8782 5.92143 22.1538 6.26112 22.1538H9.95343C10.2931 22.1538 10.5688 21.8782 10.5688 21.5385V17.8462C10.5688 17.5065 10.2931 17.2308 9.95343 17.2308H6.26112ZM12.415 17.2308C12.0753 17.2308 11.7996 17.5065 11.7996 17.8462V21.5385C11.7996 21.8782 12.0753 22.1538 12.415 22.1538H16.1073C16.447 22.1538 16.7227 21.8782 16.7227 21.5385V17.8462C16.7227 17.5065 16.447 17.2308 16.1073 17.2308H12.415ZM18.5688 17.2308C18.2291 17.2308 17.9534 17.5065 17.9534 17.8462V21.5385C17.9534 21.8782 18.2291 22.1538 18.5688 22.1538H22.2611C22.6008 22.1538 22.8765 21.8782 22.8765 21.5385V17.8462C22.8765 17.5065 22.6008 17.2308 22.2611 17.2308H18.5688ZM6.8765 18.4615H9.33804V20.9231H6.8765V18.4615ZM13.0303 18.4615H15.4919V20.9231H13.0303V18.4615ZM19.1842 18.4615H21.6457V20.9231H19.1842V18.4615ZM11.7996 24.6154H14.2611V30.7692H11.7996V24.6154ZM15.4919 24.6154H17.9534V30.7692H15.4919V24.6154Z" fill="#146683"/>
</svg>
