<svg width="35" height="31" viewBox="0 0 35 31" fill="none" xmlns="http://www.w3.org/2000/svg">
<g id="&#240;&#159;&#166;&#134; icon &#34;Hotel&#34;">
<path id="Vector" d="M33.4345 3.77778C33.9563 3.77778 34.3789 3.35514 34.3789 2.83333V0.944444C34.3789 0.422639 33.9563 0 33.4345 0H1.32335C0.801545 0 0.378906 0.422639 0.378906 0.944444V2.83333C0.378906 3.35514 0.801545 3.77778 1.32335 3.77778H2.26661V26.4444H1.32335C0.801545 26.4444 0.378906 26.8671 0.378906 27.3889V29.2778C0.378906 29.7996 0.801545 30.2222 1.32335 30.2222H15.49V25.5C15.49 24.9806 15.915 24.5556 16.4345 24.5556H18.3234C18.8428 24.5556 19.2678 24.9806 19.2678 25.5V30.2222H33.4345C33.9563 30.2222 34.3789 29.7996 34.3789 29.2778V27.3889C34.3789 26.8671 33.9563 26.4444 33.4345 26.4444H32.49V3.77778H33.4345ZM15.49 6.42222C15.49 6.04445 15.8678 5.66667 16.2456 5.66667H18.5122C18.89 5.66667 19.2678 6.04445 19.2678 6.42222V8.68889C19.2678 9.06667 18.89 9.44444 18.5122 9.44444H16.2456C15.8678 9.44444 15.49 9.06667 15.49 8.68889V6.42222ZM15.49 12.0889C15.49 11.7111 15.8678 11.3333 16.2456 11.3333H18.5122C18.89 11.3333 19.2678 11.7111 19.2678 12.0889V14.3556C19.2678 14.7333 18.89 15.1111 18.5122 15.1111H16.2456C15.8678 15.1111 15.49 14.7333 15.49 14.3556V12.0889ZM7.93446 6.42222C7.93446 6.04445 8.31224 5.66667 8.69002 5.66667H10.9567C11.3345 5.66667 11.7122 6.04445 11.7122 6.42222V8.68889C11.7122 9.06667 11.3345 9.44444 10.9567 9.44444H8.69002C8.31224 9.44444 7.93446 9.06667 7.93446 8.68889V6.42222ZM10.9567 15.1111H8.69002C8.31224 15.1111 7.93446 14.7333 7.93446 14.3556V12.0889C7.93446 11.7111 8.31224 11.3333 8.69002 11.3333H10.9567C11.3345 11.3333 11.7122 11.7111 11.7122 12.0889V14.3556C11.7122 14.7333 11.3345 15.1111 10.9567 15.1111ZM11.7122 22.6667C11.7122 19.537 14.2493 17 17.3789 17C20.5086 17 23.0456 19.537 23.0456 22.6667H11.7122ZM26.8233 14.3556C26.8233 14.7333 26.4456 15.1111 26.0678 15.1111H23.8011C23.4233 15.1111 23.0456 14.7333 23.0456 14.3556V12.0889C23.0456 11.7111 23.4233 11.3333 23.8011 11.3333H26.0678C26.4456 11.3333 26.8233 11.7111 26.8233 12.0889V14.3556ZM26.8233 8.68889C26.8233 9.06667 26.4456 9.44444 26.0678 9.44444H23.8011C23.4233 9.44444 23.0456 9.06667 23.0456 8.68889V6.42222C23.0456 6.04445 23.4233 5.66667 23.8011 5.66667H26.0678C26.4456 5.66667 26.8233 6.04445 26.8233 6.42222V8.68889Z" fill="#146683"/>
</g>
</svg>
