<svg width="46" height="45" viewBox="0 0 46 45" fill="none" xmlns="http://www.w3.org/2000/svg">
<g id="Quote Icon">
<path id="&#226;&#128;&#156;" d="M19.3873 30.5749C19.3873 32.3693 18.7453 33.8721 17.4613 35.0833C16.1773 36.2945 14.5723 36.9001 12.6463 36.9001C10.8121 36.9001 9.25294 36.2048 7.96895 34.8141C6.68496 33.4235 6.04297 31.6739 6.04297 29.5655C6.04297 28.0403 6.38689 26.358 7.07474 24.5188C7.80845 22.6795 8.74851 20.8179 9.89493 18.9337C11.0872 17.0496 12.417 15.1879 13.8845 13.3487C15.3977 11.4646 16.911 9.71505 18.4243 8.1001L20.2815 9.58047C18.2179 11.958 16.4983 14.358 15.1226 16.7805C13.7469 19.2029 12.9215 21.5805 12.6463 23.9132C14.4806 24.0478 16.0627 24.7207 17.3925 25.9319C18.7223 27.1431 19.3873 28.6908 19.3873 30.5749ZM39.1286 30.5749C39.1286 32.3693 38.4866 33.8721 37.2026 35.0833C35.9186 36.2945 34.3136 36.9001 32.3876 36.9001C30.5534 36.9001 28.9942 36.2048 27.7103 34.8141C26.4263 33.4235 25.7843 31.6739 25.7843 29.5655C25.7843 28.0403 26.1282 26.358 26.8161 24.5188C27.5498 22.6795 28.4898 20.8179 29.6362 18.9337C30.8285 17.0496 32.1584 15.1879 33.6258 13.3487C35.139 11.4646 36.6523 9.71505 38.1656 8.1001L39.954 9.58047C37.8904 11.958 36.1708 14.358 34.7951 16.7805C33.4653 19.2029 32.6628 21.5805 32.3876 23.9132C34.2219 24.0478 35.804 24.7207 37.1338 25.9319C38.4637 27.1431 39.1286 28.6908 39.1286 30.5749Z" fill="#146683"/>
</g>
</svg>
