<svg width="41" height="52" viewBox="0 0 41 52" fill="none" xmlns="http://www.w3.org/2000/svg">
<path id="Vector" d="M0.979869 0.000403176C0.422246 0.000403176 0 0.433011 0 1.00432V1.77196C0 2.34327 0.422246 2.7682 0.979869 2.7682L40.0201 2.7678C40.5778 2.7678 41 2.34285 41 1.77156V1.00391C41 0.432608 40.5778 0 40.0201 0L0.979869 0.000403176ZM3.9061 5.00458C3.34848 5.00458 2.93174 5.42953 2.93174 6.00083V51.0038C2.93174 51.5751 3.34848 52 3.9061 52H37.0933C37.6509 52 38.0677 51.575 38.0677 51.0038V6.00083C38.0677 5.42952 37.6509 5.00458 37.0933 5.00458H3.9061ZM6.83817 10.999H8.78258V12.9992H6.83817V10.999ZM15.6212 10.999H17.5735V12.9992H15.6212V10.999ZM24.4042 10.999H26.3584V12.9992H24.4042V10.999ZM32.2148 10.999H34.169V29.0055L32.2148 29.0051V10.999ZM6.83908 19.0012H8.78349V21.0033H6.83908V19.0012ZM15.6221 19.0012H17.5744V21.0033H15.6221V19.0012ZM24.4051 19.0012H26.3593V21.0033H24.4051V19.0012ZM6.83989 27.0034H8.7843V29.0055H6.83989V27.0034ZM15.6229 27.0034H17.5752V29.0055H15.6229V27.0034ZM24.4059 27.0034H26.3601V29.0055H24.4059V27.0034ZM14.653 36.0155H19.5315V48.0048H14.653C14.6605 44.025 14.6345 39.955 14.653 36.0155ZM21.4743 36.0176H26.3528C26.3673 39.934 26.3555 44.0286 26.3528 48.0068H21.4743V36.0176Z" fill="black"/>
</svg>
