<svg width="48" height="48" viewBox="0 0 48 48" fill="none" xmlns="http://www.w3.org/2000/svg">
<g id="material-symbols:event-list-outline">
<path id="Vector" d="M32 42C30.9 42 29.9587 41.6087 29.176 40.826C28.3933 40.0433 28.0013 39.1013 28 38V30C28 28.9 28.392 27.9587 29.176 27.176C29.96 26.3933 30.9013 26.0013 32 26H40C41.1 26 42.042 26.392 42.826 27.176C43.61 27.96 44.0013 28.9013 44 30V38C44 39.1 43.6087 40.042 42.826 40.826C42.0433 41.61 41.1013 42.0013 40 42H32ZM32 38H40V30H32V38ZM4 36V32H22V36H4ZM32 22C30.9 22 29.9587 21.6087 29.176 20.826C28.3933 20.0433 28.0013 19.1013 28 18V10C28 8.9 28.392 7.95867 29.176 7.176C29.96 6.39333 30.9013 6.00133 32 6H40C41.1 6 42.042 6.392 42.826 7.176C43.61 7.96 44.0013 8.90133 44 10V18C44 19.1 43.6087 20.042 42.826 20.826C42.0433 21.61 41.1013 22.0013 40 22H32ZM32 18H40V10H32V18ZM4 16V12H22V16H4Z" fill="#146683"/>
</g>
</svg>
