<svg width="56" height="56" viewBox="0 0 56 56" fill="none" xmlns="http://www.w3.org/2000/svg">
<g id="ion:restaurant-outline">
<path id="Vector" d="M6.28986 5.22156L46.5869 45.5186C47.3515 46.2833 47.7811 47.3203 47.7811 48.4017C47.7811 49.4831 47.3515 50.5202 46.5869 51.2848C45.8221 52.0492 44.7851 52.4786 43.7038 52.4786C42.6225 52.4786 41.5855 52.0492 40.8206 51.2848L30.9769 41.2716C30.3327 40.6174 29.9713 39.7364 29.9706 38.8183V38.2134C29.9707 37.7499 29.8787 37.2909 29.7 36.8632C29.5212 36.4355 29.2593 36.0475 28.9294 35.7219L27.6585 34.5483C27.227 34.1502 26.7024 33.867 26.1328 33.7248C25.5632 33.5826 24.967 33.5859 24.3991 33.7345C23.5035 33.9683 22.5623 33.9638 21.669 33.7214C20.7757 33.4791 19.9613 33.0074 19.3066 32.3531L9.96268 23.0081C4.41955 17.465 2.37971 9.09453 6.28986 5.22156Z" stroke="#146683" stroke-linejoin="round"/>
<path id="Vector_2" d="M43.7491 3.5L35.2998 11.9492C34.6497 12.5993 34.1339 13.371 33.782 14.2204C33.4302 15.0698 33.2491 15.9801 33.2491 16.8995V18.5248C33.2491 18.7548 33.2038 18.9825 33.1158 19.195C33.0278 19.4074 32.8988 19.6004 32.7361 19.763L31.4991 21M34.9991 24.5L36.2361 23.263C36.3986 23.1003 36.5917 22.9713 36.8041 22.8833C37.0166 22.7952 37.2443 22.75 37.4742 22.75H39.0995C40.0189 22.75 40.9293 22.5689 41.7787 22.217C42.6281 21.8651 43.3998 21.3494 44.0498 20.6992L52.4991 12.25M48.1241 7.875L39.3741 16.625M21.8741 40.25L10.9672 51.2181C10.1468 52.0383 9.03416 52.4991 7.87407 52.4991C6.71397 52.4991 5.60137 52.0383 4.78094 51.2181C3.96076 50.3977 3.5 49.2851 3.5 48.125C3.5 46.9649 3.96076 45.8523 4.78094 45.0319L13.9991 35.875" stroke="#146683" stroke-linecap="round" stroke-linejoin="round"/>
</g>
</svg>
