<svg width="64" height="64" viewBox="0 0 64 64" fill="none" xmlns="http://www.w3.org/2000/svg">
<g id="stash:billing-info">
<path id="Vector" d="M19.1213 8.66669H34.2146C35.6413 8.66669 36.828 8.66669 37.8013 8.74669C38.8146 8.82669 39.764 9.00802 40.6626 9.46669C42.0428 10.1698 43.1649 11.2919 43.868 12.672C44.3266 13.5707 44.508 14.52 44.588 15.5334C44.668 16.5067 44.668 17.6934 44.668 19.12V27.3334C44.668 27.8638 44.4573 28.3725 44.0822 28.7476C43.7071 29.1226 43.1984 29.3334 42.668 29.3334C42.1375 29.3334 41.6288 29.1226 41.2538 28.7476C40.8787 28.3725 40.668 27.8638 40.668 27.3334V19.2C40.668 17.6747 40.668 16.648 40.6013 15.8587C40.54 15.0934 40.428 14.728 40.3053 14.488C39.9862 13.8602 39.4765 13.3496 38.8493 13.0294C38.6066 12.9067 38.2413 12.7947 37.476 12.7334C36.6866 12.6694 35.6626 12.6667 34.1346 12.6667H19.2013C17.676 12.6667 16.6493 12.6667 15.86 12.7334C15.0946 12.7947 14.7293 12.9067 14.4893 13.0294C13.8611 13.3491 13.3504 13.8598 13.0306 14.488C12.908 14.728 12.796 15.0934 12.7346 15.8587C12.6706 16.648 12.668 17.672 12.668 19.2V44.8C12.668 46.3253 12.668 47.352 12.7346 48.1387C12.796 48.9067 12.908 49.272 13.0306 49.512C13.3346 50.1067 13.804 50.5947 14.3853 50.9147C14.428 50.9254 14.5222 50.9422 14.668 50.9654C14.9791 51.0116 15.4022 51.0542 15.9373 51.0933C16.9986 51.1734 18.364 51.2267 19.8146 51.2613C22.708 51.3334 25.8413 51.3334 27.3346 51.3334C27.8651 51.3334 28.3738 51.5441 28.7488 51.9191C29.1239 52.2942 29.3346 52.8029 29.3346 53.3334C29.3346 53.8638 29.1239 54.3725 28.7488 54.7476C28.3738 55.1226 27.8651 55.3334 27.3346 55.3334H27.3293C25.836 55.3334 22.6626 55.3334 19.716 55.2613C18.3574 55.2332 16.9997 55.1737 15.644 55.0827C15.1222 55.0485 14.6018 54.9951 14.084 54.9227C13.5957 54.866 13.119 54.7347 12.6706 54.5334C11.2923 53.8312 10.1713 52.7111 9.46797 51.3334C9.0093 50.432 8.82797 49.4827 8.74797 48.4694C8.66797 47.496 8.66797 46.3093 8.66797 44.8827V19.12C8.66797 17.6934 8.66797 16.5067 8.74797 15.5334C8.82797 14.52 9.0093 13.5707 9.46797 12.672C10.1711 11.2919 11.2932 10.1698 12.6733 9.46669C13.572 9.00802 14.5213 8.82669 15.5346 8.74669C16.508 8.66669 17.6946 8.66669 19.1213 8.66669Z" fill="#146683"/>
<path id="Vector_2" d="M38.3214 32.6667H49.676C50.7294 32.6667 51.6387 32.6667 52.388 32.728C53.18 32.792 53.9667 32.936 54.7214 33.32C55.852 33.896 56.7694 34.8134 57.3454 35.944C57.7294 36.6987 57.8734 37.4854 57.9374 38.2774C57.9987 39.024 57.9987 39.936 57.9987 40.9894V47.0107C57.9987 48.064 57.9987 48.9734 57.9374 49.7227C57.8961 50.5319 57.6949 51.325 57.3454 52.056C56.7706 53.1856 55.853 54.1041 54.724 54.68C53.9667 55.064 53.1774 55.208 52.388 55.272C51.6414 55.3334 50.7294 55.3334 49.676 55.3334H38.3187C37.2654 55.3334 36.356 55.3334 35.6067 55.272C34.7974 55.2308 34.0044 55.0295 33.2734 54.68C32.1438 54.1053 31.2252 53.1877 30.6494 52.0587C30.2995 51.3268 30.0983 50.5328 30.0574 49.7227C29.996 48.976 29.996 48.064 29.996 47.0107V40.9867C29.996 39.9334 29.996 39.024 30.0574 38.2747C30.0986 37.4654 30.2998 36.6724 30.6494 35.9414C31.2248 34.8114 32.1434 33.8928 33.2734 33.3174C34.0044 32.9678 34.7974 32.7666 35.6067 32.7254C36.3534 32.664 37.2654 32.664 38.3187 32.664M35.932 36.712C35.388 36.7574 35.1854 36.832 35.0867 36.8827C34.7114 37.0742 34.4063 37.3794 34.2147 37.7547C34.1614 37.856 34.0894 38.056 34.044 38.6L34.0387 38.664H53.9534L53.948 38.6C53.9027 38.056 53.828 37.8534 53.7774 37.7547C53.5851 37.379 53.2789 37.0738 52.9027 36.8827C52.804 36.8294 52.604 36.7574 52.06 36.712C51.2395 36.6668 50.4177 36.6508 49.596 36.664H38.396C37.244 36.664 36.4974 36.664 35.932 36.712ZM53.9987 44H33.9987V46.9334C33.9987 48.0854 33.9987 48.832 34.0467 49.3974C34.092 49.9414 34.1667 50.144 34.2174 50.24C34.4085 50.6163 34.7137 50.9224 35.0894 51.1147C35.1907 51.168 35.3907 51.24 35.9347 51.2854C36.5 51.3307 37.2467 51.3334 38.3987 51.3334H49.5987C50.7507 51.3334 51.4974 51.3334 52.0627 51.2854C52.6067 51.24 52.8094 51.1653 52.9054 51.1147C53.282 50.9229 53.5882 50.6167 53.78 50.24C53.8334 50.1414 53.9054 49.9414 53.9507 49.3974C53.996 48.832 53.9987 48.0854 53.9987 46.9334V44ZM17.332 16.6667C16.8016 16.6667 16.2929 16.8774 15.9178 17.2525C15.5427 17.6275 15.332 18.1363 15.332 18.6667C15.332 19.1971 15.5427 19.7058 15.9178 20.0809C16.2929 20.456 16.8016 20.6667 17.332 20.6667H27.9987C28.5291 20.6667 29.0378 20.456 29.4129 20.0809C29.788 19.7058 29.9987 19.1971 29.9987 18.6667C29.9987 18.1363 29.788 17.6275 29.4129 17.2525C29.0378 16.8774 28.5291 16.6667 27.9987 16.6667H17.332ZM15.332 26.6667C15.332 26.1363 15.5427 25.6275 15.9178 25.2525C16.2929 24.8774 16.8016 24.6667 17.332 24.6667H35.9987C36.5291 24.6667 37.0378 24.8774 37.4129 25.2525C37.788 25.6275 37.9987 26.1363 37.9987 26.6667C37.9987 27.1971 37.788 27.7058 37.4129 28.0809C37.0378 28.456 36.5291 28.6667 35.9987 28.6667H17.332C16.8016 28.6667 16.2929 28.456 15.9178 28.0809C15.5427 27.7058 15.332 27.1971 15.332 26.6667ZM17.332 32.6667C16.8016 32.6667 16.2929 32.8774 15.9178 33.2525C15.5427 33.6275 15.332 34.1363 15.332 34.6667C15.332 35.1971 15.5427 35.7058 15.9178 36.0809C16.2929 36.456 16.8016 36.6667 17.332 36.6667H26.6654C27.1958 36.6667 27.7045 36.456 28.0796 36.0809C28.4546 35.7058 28.6654 35.1971 28.6654 34.6667C28.6654 34.1363 28.4546 33.6275 28.0796 33.2525C27.7045 32.8774 27.1958 32.6667 26.6654 32.6667H17.332ZM15.332 45.3334C15.332 44.8029 15.5427 44.2942 15.9178 43.9191C16.2929 43.5441 16.8016 43.3334 17.332 43.3334H22.6654C23.1958 43.3334 23.7045 43.5441 24.0796 43.9191C24.4546 44.2942 24.6654 44.8029 24.6654 45.3334C24.6654 45.8638 24.4546 46.3725 24.0796 46.7476C23.7045 47.1226 23.1958 47.3334 22.6654 47.3334H17.332C16.8016 47.3334 16.2929 47.1226 15.9178 46.7476C15.5427 46.3725 15.332 45.8638 15.332 45.3334Z" fill="#146683"/>
</g>
</svg>
