<svg width="64" height="64" viewBox="0 0 64 64" fill="none" xmlns="http://www.w3.org/2000/svg">
<g id="garden:customer-lists-fill-26">
<path id="Vector" d="M54.1058 24.3077H41.104C39.9421 24.3077 39.0018 23.2172 39.0018 21.8732V21.8215C39.0018 20.4775 39.9421 19.3871 41.104 19.3871H54.1058C55.2775 19.3871 56.2326 20.4948 56.2326 21.8486C56.2326 23.2025 55.2775 24.3102 54.1058 24.3102V24.3077ZM54.1058 34.1538H41.104C39.9421 34.1538 39.0018 33.0634 39.0018 31.7194V31.6652C39.0018 30.3212 39.9421 29.2308 41.104 29.2308H54.1058C55.2775 29.2308 56.2326 30.3385 56.2326 31.6923C56.2326 33.0462 55.2775 34.1538 54.1058 34.1538ZM54.16 44H45.9704C44.8381 44 43.9249 42.9095 43.9249 41.5655V41.5114C43.9249 40.1674 44.8406 39.0769 45.9704 39.0769H54.16C55.2996 39.0769 56.2326 40.1846 56.2326 41.5385C56.2326 42.8923 55.2996 44 54.16 44ZM24.2326 31.6923C21.6212 31.6923 19.1168 30.6549 17.2703 28.8084C15.4238 26.9619 14.3864 24.4575 14.3864 21.8462C14.3864 19.2348 15.4238 16.7304 17.2703 14.8839C19.1168 13.0374 21.6212 12 24.2326 12C26.8439 12 29.3483 13.0374 31.1949 14.8839C33.0414 16.7304 34.0787 19.2348 34.0787 21.8462C34.0787 24.4575 33.0414 26.9619 31.1949 28.8084C29.3483 30.6549 26.8439 31.6923 24.2326 31.6923ZM9.3895 51.5643C7.95442 51.5643 6.8098 50.2892 7.02642 48.8738C7.66662 44.771 9.75276 41.0323 12.9081 38.3328C16.0635 35.6334 20.0801 34.1512 24.2326 34.1538C28.3846 34.1518 32.4006 35.6343 35.5555 38.3336C38.7103 41.033 40.7961 44.7714 41.4363 48.8738C41.6578 50.2892 40.5107 51.5643 39.0781 51.5643H9.3895Z" fill="#146683"/>
</g>
</svg>
