<svg width="73" height="73" viewBox="0 0 73 73" fill="none" xmlns="http://www.w3.org/2000/svg">
<g id="et:mobile" clip-path="url(#clip0_329_166)">
<g id="Group">
<path id="Vector" d="M3.42188 73H35.3594C35.6619 73 35.952 72.8798 36.1659 72.6659C36.3798 72.452 36.5 72.1619 36.5 71.8594C36.5 71.5569 36.3798 71.2667 36.1659 71.0528C35.952 70.8389 35.6619 70.7188 35.3594 70.7188H3.42188C3.11936 70.7188 2.82924 70.5986 2.61533 70.3847C2.40142 70.1708 2.28125 69.8806 2.28125 69.5781V3.42188C2.28125 3.11936 2.40142 2.82924 2.61533 2.61533C2.82924 2.40142 3.11936 2.28125 3.42188 2.28125H51.3281C51.6306 2.28125 51.9208 2.40142 52.1347 2.61533C52.3486 2.82924 52.4688 3.11936 52.4688 3.42188V14.8281C52.4688 15.1306 52.5889 15.4208 52.8028 15.6347C53.0167 15.8486 53.3069 15.9688 53.6094 15.9688C53.9119 15.9688 54.202 15.8486 54.4159 15.6347C54.6298 15.4208 54.75 15.1306 54.75 14.8281V3.42188C54.75 1.53528 53.2147 0 51.3281 0H3.42188C1.53528 0 0 1.53528 0 3.42188V69.5781C0 71.4647 1.53528 73 3.42188 73Z" fill="#146683"/>
<path id="Vector_2" d="M41.0625 23.9531V69.5781C41.0625 71.4647 42.5978 73 44.4844 73H69.5781C71.4647 73 73 71.4647 73 69.5781V23.9531C73 22.0665 71.4647 20.5312 69.5781 20.5312H44.4844C42.5978 20.5312 41.0625 22.0665 41.0625 23.9531ZM70.7188 23.9531V69.5781C70.7188 69.8806 70.5986 70.1708 70.3847 70.3847C70.1708 70.5986 69.8806 70.7188 69.5781 70.7188H44.4844C44.1819 70.7188 43.8917 70.5986 43.6778 70.3847C43.4639 70.1708 43.3438 69.8806 43.3438 69.5781V23.9531C43.3438 23.6506 43.4639 23.3605 43.6778 23.1466C43.8917 22.9327 44.1819 22.8125 44.4844 22.8125H69.5781C69.8806 22.8125 70.1708 22.9327 70.3847 23.1466C70.5986 23.3605 70.7188 23.6506 70.7188 23.9531Z" fill="#146683"/>
<path id="Vector_3" d="M27.375 66.1562C28.6349 66.1562 29.6562 65.1349 29.6562 63.875C29.6562 62.6151 28.6349 61.5938 27.375 61.5938C26.1151 61.5938 25.0938 62.6151 25.0938 63.875C25.0938 65.1349 26.1151 66.1562 27.375 66.1562Z" fill="#146683"/>
<path id="Vector_4" d="M57.0312 66.1562C58.2911 66.1562 59.3125 65.1349 59.3125 63.875C59.3125 62.6151 58.2911 61.5938 57.0312 61.5938C55.7714 61.5938 54.75 62.6151 54.75 63.875C54.75 65.1349 55.7714 66.1562 57.0312 66.1562Z" fill="#146683"/>
</g>
</g>
<defs>
<clipPath id="clip0_329_166">
<rect width="73" height="73" fill="white"/>
</clipPath>
</defs>
</svg>
