<svg width="89" height="89" viewBox="0 0 89 89" fill="none" xmlns="http://www.w3.org/2000/svg">
<g id="fluent:person-support-20-regular">
<path id="Vector" d="M44.5016 64.525C42.2641 64.5255 40.1085 63.6831 38.4641 62.1658C36.8198 60.6484 35.8073 58.5673 35.6283 56.337C29.6928 54.2361 24.6904 50.1057 21.5041 44.6752C18.3177 39.2446 17.1524 32.8629 18.2137 26.6567C19.2751 20.4505 22.4949 14.8187 27.3047 10.7556C32.1146 6.69244 38.2052 4.45918 44.5016 4.45001C51.1983 4.44904 57.651 6.96465 62.58 11.498C67.509 16.0314 70.5545 22.2515 71.1126 28.925C71.1312 29.2145 71.0893 29.5046 70.9898 29.7771C70.8902 30.0495 70.735 30.2983 70.5341 30.5075C70.3333 30.7168 70.0911 30.8819 69.8229 30.9925C69.5548 31.1032 69.2665 31.1568 68.9766 31.15C68.3805 31.1351 67.8113 30.8991 67.3795 30.4879C66.9478 30.0767 66.6843 29.5196 66.6403 28.925C66.244 24.9905 64.8062 21.2327 62.475 18.0384C60.1438 14.8442 57.0035 12.3289 53.3772 10.7516C49.751 9.17429 45.7699 8.59191 41.8437 9.06441C37.9176 9.53692 34.1884 11.0472 31.0399 13.4399C27.8914 15.8325 25.4375 19.0211 23.9308 22.6772C22.424 26.3334 21.9189 30.325 22.4674 34.2412C23.0159 38.1574 24.5982 41.8567 27.0515 44.9582C29.5047 48.0597 32.7402 50.4514 36.4248 51.887C37.0953 50.4383 38.143 49.1966 39.4583 48.292C40.7735 47.3874 42.3078 46.8532 43.9005 46.7453C45.4932 46.6375 47.0855 46.96 48.5107 47.679C49.9359 48.3981 51.1415 49.4872 52.0011 50.8323C52.8607 52.1774 53.3428 53.7289 53.3967 55.3243C53.4506 56.9197 53.0745 58.5003 52.3077 59.9003C51.5408 61.3004 50.4116 62.4684 49.0382 63.2821C47.6648 64.0957 46.0979 64.525 44.5016 64.525ZM22.2916 53.4H22.6966C24.4321 55.0955 26.3589 56.5907 28.446 57.85H22.2916C19.7952 57.85 17.8016 59.8392 17.8016 62.3C17.8016 68.1251 20.5695 72.4638 25.2464 75.4409C30.0079 78.4802 36.7808 80.1 44.5016 80.1C52.2223 80.1 58.9952 78.4802 63.7567 75.4409C68.4292 72.4594 71.2016 68.1295 71.2016 62.3C71.2016 61.1198 70.7327 59.9879 69.8982 59.1534C69.0636 58.3188 67.9318 57.85 66.7516 57.85H57.6691C57.9181 56.3771 57.9181 54.8729 57.6691 53.4H66.7516C69.112 53.4 71.3757 54.3377 73.0448 56.0068C74.7139 57.6758 75.6516 59.9396 75.6516 62.3C75.6516 69.825 71.9447 75.4987 66.1508 79.1967C60.4459 82.8323 52.7563 84.55 44.5016 84.55C36.2468 84.55 28.5572 82.8323 22.8523 79.1967C17.0584 75.5032 13.3516 69.8205 13.3516 62.3C13.3516 57.3472 17.3699 53.4 22.2916 53.4ZM62.3016 31.15C62.3025 34.1611 61.5396 37.1231 60.0843 39.7591C58.6289 42.3951 56.5287 44.6188 53.9801 46.2222C52.7921 45.0243 51.3878 44.0624 49.8416 43.3875C52.6525 42.1607 54.9554 40.0034 56.3629 37.2784C57.7703 34.5534 58.1966 31.4268 57.57 28.4245C56.9433 25.4222 55.302 22.7271 52.9221 20.7926C50.5421 18.8581 47.5686 17.802 44.5016 17.802C41.4345 17.802 38.461 18.8581 36.0811 20.7926C33.7011 22.7271 32.0598 25.4222 31.4332 28.4245C30.8065 31.4268 31.2328 34.5534 32.6403 37.2784C34.0477 40.0034 36.3506 42.1607 39.1616 43.3875C37.6041 44.0684 36.2023 45.034 35.0231 46.2222C31.6429 44.0965 29.0757 40.896 27.734 37.1353C27.0495 35.2141 26.7003 33.1895 26.7016 31.15C26.7016 26.4292 28.5769 21.9017 31.9151 18.5635C35.2532 15.2254 39.7807 13.35 44.5016 13.35C49.2224 13.35 53.7499 15.2254 57.0881 18.5635C60.4262 21.9017 62.3016 26.4292 62.3016 31.15Z" fill="#146683"/>
</g>
</svg>
