<svg width="95" height="95" viewBox="0 0 95 95" fill="none" xmlns="http://www.w3.org/2000/svg">
<g id="fluent:receipt-20-regular">
<path id="Vector" d="M14.25 23.75C14.25 21.2304 15.2509 18.8141 17.0325 17.0325C18.8141 15.2509 21.2304 14.25 23.75 14.25H57C59.5196 14.25 61.9359 15.2509 63.7175 17.0325C65.4991 18.8141 66.5 21.2304 66.5 23.75V57H80.75V66.5C80.75 70.2793 79.2487 73.9039 76.5763 76.5763C73.9039 79.2487 70.2793 80.75 66.5 80.75H28.5C24.7207 80.75 21.0961 79.2487 18.4237 76.5763C15.7513 73.9039 14.25 70.2793 14.25 66.5V23.75ZM66.5 61.75V76C69.0196 76 71.4359 74.9991 73.2175 73.2175C74.9991 71.4359 76 69.0196 76 66.5V61.75H66.5ZM61.75 76V23.75C61.75 22.4902 61.2496 21.282 60.3588 20.3912C59.468 19.5004 58.2598 19 57 19H23.75C22.4902 19 21.282 19.5004 20.3912 20.3912C19.5004 21.282 19 22.4902 19 23.75V66.5C19 69.0196 20.0009 71.4359 21.7825 73.2175C23.5641 74.9991 25.9804 76 28.5 76H61.75ZM28.5 30.875C28.5 30.2451 28.7502 29.641 29.1956 29.1956C29.641 28.7502 30.2451 28.5 30.875 28.5H49.875C50.5049 28.5 51.109 28.7502 51.5544 29.1956C51.9998 29.641 52.25 30.2451 52.25 30.875C52.25 31.5049 51.9998 32.109 51.5544 32.5544C51.109 32.9998 50.5049 33.25 49.875 33.25H30.875C30.2451 33.25 29.641 32.9998 29.1956 32.5544C28.7502 32.109 28.5 31.5049 28.5 30.875ZM28.5 45.125C28.5 44.4951 28.7502 43.891 29.1956 43.4456C29.641 43.0002 30.2451 42.75 30.875 42.75H49.875C50.5049 42.75 51.109 43.0002 51.5544 43.4456C51.9998 43.891 52.25 44.4951 52.25 45.125C52.25 45.7549 51.9998 46.359 51.5544 46.8044C51.109 47.2498 50.5049 47.5 49.875 47.5H30.875C30.2451 47.5 29.641 47.2498 29.1956 46.8044C28.7502 46.359 28.5 45.7549 28.5 45.125ZM28.5 59.375C28.5 58.7451 28.7502 58.141 29.1956 57.6956C29.641 57.2502 30.2451 57 30.875 57H40.375C41.0049 57 41.609 57.2502 42.0544 57.6956C42.4998 58.141 42.75 58.7451 42.75 59.375C42.75 60.0049 42.4998 60.609 42.0544 61.0544C41.609 61.4998 41.0049 61.75 40.375 61.75H30.875C30.2451 61.75 29.641 61.4998 29.1956 61.0544C28.7502 60.609 28.5 60.0049 28.5 59.375Z" fill="#146683"/>
</g>
</svg>
